G04*
G04 #@! TF.GenerationSoftware,Altium Limited,Altium Designer,21.2.0 (30)*
G04*
G04 Layer_Color=8388736*
%FSLAX24Y24*%
%MOIN*%
G70*
G04*
G04 #@! TF.SameCoordinates,F2F7C35C-2EFF-4099-9E54-F5DBC4FB75ED*
G04*
G04*
G04 #@! TF.FilePolarity,Negative*
G04*
G01*
G75*
%ADD15R,0.0376X0.0095*%
G04:AMPARAMS|DCode=17|XSize=37.6mil|YSize=9.5mil|CornerRadius=4.8mil|HoleSize=0mil|Usage=FLASHONLY|Rotation=0.000|XOffset=0mil|YOffset=0mil|HoleType=Round|Shape=RoundedRectangle|*
%AMROUNDEDRECTD17*
21,1,0.0376,0.0000,0,0,0.0*
21,1,0.0281,0.0095,0,0,0.0*
1,1,0.0095,0.0140,0.0000*
1,1,0.0095,-0.0140,0.0000*
1,1,0.0095,-0.0140,0.0000*
1,1,0.0095,0.0140,0.0000*
%
%ADD17ROUNDEDRECTD17*%
%ADD21C,0.0787*%
%ADD22R,0.0472X0.0748*%
%ADD23R,0.0572X0.0690*%
%ADD24R,0.0690X0.0572*%
%ADD25R,0.0690X0.0671*%
%ADD26C,0.0690*%
%ADD27R,0.0690X0.0690*%
%ADD28C,0.0710*%
%ADD29R,0.0710X0.0710*%
D15*
X31367Y20195D02*
D03*
D17*
X32333D02*
D03*
Y19998D02*
D03*
Y19802D02*
D03*
Y19605D02*
D03*
X31367D02*
D03*
Y19802D02*
D03*
Y19998D02*
D03*
D21*
X29300Y21050D02*
D03*
X34200D02*
D03*
D22*
X31850Y19900D02*
D03*
D23*
X30354Y18450D02*
D03*
X29546D02*
D03*
X33096D02*
D03*
X33904D02*
D03*
X31300D02*
D03*
X32107D02*
D03*
D24*
X30200Y20254D02*
D03*
Y19446D02*
D03*
D25*
X33300Y19496D02*
D03*
Y20204D02*
D03*
D26*
X32700Y17300D02*
D03*
X31700D02*
D03*
D27*
X30700D02*
D03*
D28*
X33300Y22050D02*
D03*
X32300D02*
D03*
X31300D02*
D03*
D29*
X30300D02*
D03*
M02*
