G04*
G04 #@! TF.GenerationSoftware,Altium Limited,Altium Designer,21.2.0 (30)*
G04*
G04 Layer_Color=32896*
%FSLAX24Y24*%
%MOIN*%
G70*
G04*
G04 #@! TF.SameCoordinates,F2F7C35C-2EFF-4099-9E54-F5DBC4FB75ED*
G04*
G04*
G04 #@! TF.FilePolarity,Positive*
G04*
G01*
G75*
%ADD11C,0.0079*%
%ADD40C,0.0080*%
G36*
X29623Y21327D02*
X29632D01*
Y21325D01*
X29634D01*
Y21324D01*
X29635D01*
Y21322D01*
Y21320D01*
Y21318D01*
Y21317D01*
Y21315D01*
X29637D01*
Y21313D01*
Y21311D01*
Y21309D01*
Y21308D01*
Y21306D01*
X29639D01*
Y21304D01*
Y21302D01*
Y21300D01*
Y21299D01*
Y21297D01*
X29641D01*
Y21295D01*
Y21293D01*
Y21292D01*
Y21290D01*
Y21288D01*
X29643D01*
Y21286D01*
Y21284D01*
Y21283D01*
Y21281D01*
Y21279D01*
X29644D01*
Y21277D01*
Y21275D01*
Y21274D01*
Y21272D01*
Y21270D01*
X29646D01*
Y21268D01*
Y21267D01*
Y21265D01*
Y21263D01*
Y21261D01*
Y21259D01*
X29648D01*
Y21258D01*
Y21256D01*
Y21254D01*
Y21252D01*
Y21250D01*
X29650D01*
Y21249D01*
Y21247D01*
Y21245D01*
Y21243D01*
Y21241D01*
Y21240D01*
X29652D01*
Y21238D01*
Y21236D01*
Y21234D01*
Y21233D01*
Y21231D01*
X29653D01*
Y21229D01*
Y21227D01*
Y21225D01*
Y21224D01*
Y21222D01*
Y21220D01*
X29655D01*
Y21218D01*
Y21216D01*
Y21215D01*
Y21213D01*
Y21211D01*
Y21209D01*
X29657D01*
Y21208D01*
Y21206D01*
Y21204D01*
Y21202D01*
Y21200D01*
Y21199D01*
X29659D01*
Y21197D01*
Y21195D01*
Y21193D01*
Y21191D01*
Y21190D01*
X29660D01*
Y21188D01*
Y21186D01*
X29662D01*
Y21184D01*
X29664D01*
Y21183D01*
X29666D01*
Y21181D01*
X29669D01*
Y21179D01*
X29675D01*
Y21177D01*
X29678D01*
Y21175D01*
X29684D01*
Y21174D01*
X29687D01*
Y21172D01*
X29693D01*
Y21170D01*
X29696D01*
Y21168D01*
X29702D01*
Y21166D01*
X29705D01*
Y21165D01*
X29709D01*
Y21163D01*
X29714D01*
Y21161D01*
X29718D01*
Y21159D01*
X29723D01*
Y21157D01*
X29727D01*
Y21156D01*
X29732D01*
Y21154D01*
X29736D01*
Y21152D01*
X29741D01*
Y21150D01*
X29744D01*
Y21149D01*
X29750D01*
Y21147D01*
X29753D01*
Y21145D01*
X29764D01*
Y21147D01*
X29768D01*
Y21149D01*
X29771D01*
Y21150D01*
X29773D01*
Y21152D01*
X29777D01*
Y21154D01*
X29778D01*
Y21156D01*
X29780D01*
Y21157D01*
X29784D01*
Y21159D01*
X29786D01*
Y21161D01*
X29789D01*
Y21163D01*
X29791D01*
Y21165D01*
X29795D01*
Y21166D01*
X29796D01*
Y21168D01*
X29800D01*
Y21170D01*
X29802D01*
Y21172D01*
X29805D01*
Y21174D01*
X29807D01*
Y21175D01*
X29811D01*
Y21177D01*
X29812D01*
Y21179D01*
X29816D01*
Y21181D01*
X29818D01*
Y21183D01*
X29820D01*
Y21184D01*
X29823D01*
Y21186D01*
X29825D01*
Y21188D01*
X29828D01*
Y21190D01*
X29830D01*
Y21191D01*
X29834D01*
Y21193D01*
X29836D01*
Y21195D01*
X29839D01*
Y21197D01*
X29841D01*
Y21199D01*
X29845D01*
Y21200D01*
X29846D01*
Y21202D01*
X29848D01*
Y21204D01*
X29852D01*
Y21206D01*
X29853D01*
Y21208D01*
X29857D01*
Y21209D01*
X29859D01*
Y21211D01*
X29862D01*
Y21213D01*
X29864D01*
Y21215D01*
X29868D01*
Y21216D01*
X29870D01*
Y21218D01*
X29871D01*
Y21220D01*
X29875D01*
Y21222D01*
X29879D01*
Y21224D01*
X29882D01*
Y21222D01*
X29886D01*
Y21220D01*
X29887D01*
Y21218D01*
X29889D01*
Y21216D01*
X29891D01*
Y21215D01*
X29893D01*
Y21213D01*
X29895D01*
Y21211D01*
X29896D01*
Y21209D01*
X29898D01*
Y21208D01*
X29900D01*
Y21206D01*
X29902D01*
Y21204D01*
X29904D01*
Y21202D01*
X29905D01*
Y21200D01*
X29907D01*
Y21199D01*
X29909D01*
Y21197D01*
X29911D01*
Y21195D01*
X29912D01*
Y21193D01*
X29914D01*
Y21191D01*
X29916D01*
Y21190D01*
X29918D01*
Y21188D01*
X29920D01*
Y21186D01*
X29921D01*
Y21184D01*
X29923D01*
Y21183D01*
X29925D01*
Y21181D01*
X29927D01*
Y21179D01*
X29929D01*
Y21177D01*
X29930D01*
Y21175D01*
X29932D01*
Y21174D01*
X29934D01*
Y21172D01*
X29936D01*
Y21170D01*
X29937D01*
Y21168D01*
X29939D01*
Y21166D01*
X29941D01*
Y21165D01*
X29943D01*
Y21163D01*
X29945D01*
Y21161D01*
X29946D01*
Y21159D01*
X29948D01*
Y21157D01*
X29950D01*
Y21156D01*
X29952D01*
Y21154D01*
X29954D01*
Y21152D01*
X29955D01*
Y21150D01*
X29957D01*
Y21149D01*
X29959D01*
Y21147D01*
X29961D01*
Y21145D01*
X29963D01*
Y21143D01*
X29964D01*
Y21141D01*
X29966D01*
Y21140D01*
X29968D01*
Y21138D01*
X29970D01*
Y21136D01*
X29971D01*
Y21134D01*
X29973D01*
Y21132D01*
X29975D01*
Y21131D01*
X29977D01*
Y21129D01*
X29979D01*
Y21127D01*
X29980D01*
Y21125D01*
X29982D01*
Y21124D01*
Y21122D01*
Y21120D01*
X29980D01*
Y21118D01*
Y21116D01*
X29979D01*
Y21115D01*
Y21113D01*
X29977D01*
Y21111D01*
X29975D01*
Y21109D01*
X29973D01*
Y21107D01*
Y21106D01*
X29971D01*
Y21104D01*
X29970D01*
Y21102D01*
Y21100D01*
X29968D01*
Y21099D01*
X29966D01*
Y21097D01*
Y21095D01*
X29964D01*
Y21093D01*
X29963D01*
Y21091D01*
Y21090D01*
X29961D01*
Y21088D01*
X29959D01*
Y21086D01*
Y21084D01*
X29957D01*
Y21082D01*
X29955D01*
Y21081D01*
Y21079D01*
X29954D01*
Y21077D01*
X29952D01*
Y21075D01*
Y21073D01*
X29950D01*
Y21072D01*
X29948D01*
Y21070D01*
X29946D01*
Y21068D01*
Y21066D01*
X29945D01*
Y21065D01*
X29943D01*
Y21063D01*
Y21061D01*
X29941D01*
Y21059D01*
X29939D01*
Y21057D01*
Y21056D01*
X29937D01*
Y21054D01*
X29936D01*
Y21052D01*
Y21050D01*
X29934D01*
Y21048D01*
X29932D01*
Y21047D01*
Y21045D01*
X29930D01*
Y21043D01*
X29929D01*
Y21041D01*
Y21040D01*
X29927D01*
Y21038D01*
X29925D01*
Y21036D01*
Y21034D01*
X29923D01*
Y21032D01*
X29921D01*
Y21031D01*
X29920D01*
Y21029D01*
Y21027D01*
X29918D01*
Y21025D01*
X29916D01*
Y21023D01*
Y21022D01*
X29914D01*
Y21020D01*
X29912D01*
Y21018D01*
Y21016D01*
X29911D01*
Y21015D01*
X29909D01*
Y21013D01*
Y21011D01*
X29907D01*
Y21009D01*
X29905D01*
Y21007D01*
Y21006D01*
Y21004D01*
X29904D01*
Y21002D01*
Y21000D01*
X29905D01*
Y20998D01*
Y20997D01*
Y20995D01*
X29907D01*
Y20993D01*
Y20991D01*
X29909D01*
Y20989D01*
Y20988D01*
X29911D01*
Y20986D01*
Y20984D01*
Y20982D01*
X29912D01*
Y20981D01*
Y20979D01*
X29914D01*
Y20977D01*
Y20975D01*
X29916D01*
Y20973D01*
Y20972D01*
Y20970D01*
X29918D01*
Y20968D01*
Y20966D01*
X29920D01*
Y20964D01*
Y20963D01*
Y20961D01*
X29921D01*
Y20959D01*
Y20957D01*
X29923D01*
Y20956D01*
Y20954D01*
X29925D01*
Y20952D01*
Y20950D01*
X29927D01*
Y20948D01*
Y20947D01*
Y20945D01*
X29929D01*
Y20943D01*
Y20941D01*
X29930D01*
Y20939D01*
Y20938D01*
X29932D01*
Y20936D01*
Y20934D01*
Y20932D01*
X29934D01*
Y20931D01*
Y20929D01*
X29936D01*
Y20927D01*
Y20925D01*
X29937D01*
Y20923D01*
Y20922D01*
X29939D01*
Y20920D01*
Y20918D01*
Y20916D01*
X29941D01*
Y20914D01*
Y20913D01*
X29943D01*
Y20911D01*
Y20909D01*
X29945D01*
Y20907D01*
Y20906D01*
X29948D01*
Y20904D01*
X29950D01*
Y20902D01*
X29954D01*
Y20900D01*
X29959D01*
Y20898D01*
X29966D01*
Y20897D01*
X29975D01*
Y20895D01*
X29984D01*
Y20893D01*
X29995D01*
Y20891D01*
X30004D01*
Y20889D01*
X30013D01*
Y20888D01*
X30023D01*
Y20886D01*
X30034D01*
Y20884D01*
X30043D01*
Y20882D01*
X30052D01*
Y20880D01*
X30063D01*
Y20879D01*
X30075D01*
Y20877D01*
X30082D01*
Y20875D01*
X30084D01*
Y20873D01*
X30086D01*
Y20872D01*
Y20870D01*
Y20868D01*
X30088D01*
Y20866D01*
Y20864D01*
Y20863D01*
Y20861D01*
Y20859D01*
Y20857D01*
Y20855D01*
Y20854D01*
Y20852D01*
Y20850D01*
Y20848D01*
Y20847D01*
Y20845D01*
Y20843D01*
Y20841D01*
Y20839D01*
Y20838D01*
Y20836D01*
Y20834D01*
Y20832D01*
Y20830D01*
Y20829D01*
Y20827D01*
Y20825D01*
Y20823D01*
Y20822D01*
Y20820D01*
Y20818D01*
Y20816D01*
Y20814D01*
Y20813D01*
Y20811D01*
Y20809D01*
Y20807D01*
Y20805D01*
Y20804D01*
Y20802D01*
Y20800D01*
Y20798D01*
Y20796D01*
Y20795D01*
Y20793D01*
Y20791D01*
Y20789D01*
Y20788D01*
Y20786D01*
Y20784D01*
Y20782D01*
Y20780D01*
Y20779D01*
Y20777D01*
Y20775D01*
Y20773D01*
Y20771D01*
Y20770D01*
Y20768D01*
Y20766D01*
Y20764D01*
Y20763D01*
Y20761D01*
Y20759D01*
Y20757D01*
Y20755D01*
Y20754D01*
Y20752D01*
Y20750D01*
Y20748D01*
Y20746D01*
Y20745D01*
Y20743D01*
Y20741D01*
Y20739D01*
Y20738D01*
X30086D01*
Y20736D01*
Y20734D01*
X30084D01*
Y20732D01*
Y20730D01*
X30080D01*
Y20729D01*
X30072D01*
Y20727D01*
X30061D01*
Y20725D01*
X30052D01*
Y20723D01*
X30041D01*
Y20721D01*
X30030D01*
Y20720D01*
X30021D01*
Y20718D01*
X30011D01*
Y20716D01*
X30000D01*
Y20714D01*
X29991D01*
Y20713D01*
X29980D01*
Y20711D01*
X29970D01*
Y20709D01*
X29961D01*
Y20707D01*
X29955D01*
Y20705D01*
X29954D01*
Y20704D01*
X29952D01*
Y20702D01*
X29950D01*
Y20700D01*
X29948D01*
Y20698D01*
X29946D01*
Y20696D01*
Y20695D01*
Y20693D01*
X29945D01*
Y20691D01*
Y20689D01*
X29943D01*
Y20687D01*
Y20686D01*
Y20684D01*
X29941D01*
Y20682D01*
Y20680D01*
X29939D01*
Y20679D01*
Y20677D01*
X29937D01*
Y20675D01*
Y20673D01*
Y20671D01*
X29936D01*
Y20670D01*
Y20668D01*
X29934D01*
Y20666D01*
Y20664D01*
Y20662D01*
X29932D01*
Y20661D01*
Y20659D01*
X29930D01*
Y20657D01*
Y20655D01*
Y20654D01*
X29929D01*
Y20652D01*
Y20650D01*
X29927D01*
Y20648D01*
Y20646D01*
Y20645D01*
X29925D01*
Y20643D01*
Y20641D01*
X29923D01*
Y20639D01*
Y20637D01*
Y20636D01*
X29921D01*
Y20634D01*
Y20632D01*
X29920D01*
Y20630D01*
Y20629D01*
Y20627D01*
X29918D01*
Y20625D01*
Y20623D01*
X29916D01*
Y20621D01*
Y20620D01*
Y20618D01*
X29914D01*
Y20616D01*
Y20614D01*
X29912D01*
Y20612D01*
Y20611D01*
Y20609D01*
X29911D01*
Y20607D01*
Y20605D01*
X29909D01*
Y20603D01*
Y20602D01*
Y20600D01*
Y20598D01*
Y20596D01*
Y20595D01*
Y20593D01*
Y20591D01*
X29911D01*
Y20589D01*
X29912D01*
Y20587D01*
Y20586D01*
X29914D01*
Y20584D01*
X29916D01*
Y20582D01*
X29918D01*
Y20580D01*
Y20578D01*
X29920D01*
Y20577D01*
X29921D01*
Y20575D01*
Y20573D01*
X29923D01*
Y20571D01*
X29925D01*
Y20570D01*
Y20568D01*
X29927D01*
Y20566D01*
X29929D01*
Y20564D01*
Y20562D01*
X29930D01*
Y20561D01*
X29932D01*
Y20559D01*
X29934D01*
Y20557D01*
Y20555D01*
X29936D01*
Y20553D01*
Y20552D01*
X29937D01*
Y20550D01*
X29939D01*
Y20548D01*
X29941D01*
Y20546D01*
Y20545D01*
X29943D01*
Y20543D01*
X29945D01*
Y20541D01*
Y20539D01*
X29946D01*
Y20537D01*
X29948D01*
Y20536D01*
Y20534D01*
X29950D01*
Y20532D01*
X29952D01*
Y20530D01*
Y20528D01*
X29954D01*
Y20527D01*
X29955D01*
Y20525D01*
Y20523D01*
X29957D01*
Y20521D01*
X29959D01*
Y20520D01*
Y20518D01*
X29961D01*
Y20516D01*
X29963D01*
Y20514D01*
Y20512D01*
X29964D01*
Y20511D01*
X29966D01*
Y20509D01*
X29968D01*
Y20507D01*
Y20505D01*
X29970D01*
Y20503D01*
X29971D01*
Y20502D01*
Y20500D01*
X29973D01*
Y20498D01*
X29975D01*
Y20496D01*
Y20494D01*
X29977D01*
Y20493D01*
X29979D01*
Y20491D01*
Y20489D01*
X29980D01*
Y20487D01*
Y20486D01*
X29982D01*
Y20484D01*
Y20482D01*
X29980D01*
Y20480D01*
Y20478D01*
X29979D01*
Y20477D01*
X29977D01*
Y20475D01*
X29975D01*
Y20473D01*
X29973D01*
Y20471D01*
X29971D01*
Y20469D01*
X29970D01*
Y20468D01*
X29968D01*
Y20466D01*
X29966D01*
Y20464D01*
X29964D01*
Y20462D01*
X29963D01*
Y20461D01*
X29961D01*
Y20459D01*
X29959D01*
Y20457D01*
X29957D01*
Y20455D01*
X29955D01*
Y20453D01*
X29954D01*
Y20452D01*
X29952D01*
Y20450D01*
X29950D01*
Y20448D01*
X29948D01*
Y20446D01*
X29946D01*
Y20444D01*
X29945D01*
Y20443D01*
X29943D01*
Y20441D01*
X29941D01*
Y20439D01*
X29939D01*
Y20437D01*
X29937D01*
Y20436D01*
X29936D01*
Y20434D01*
X29934D01*
Y20432D01*
X29932D01*
Y20430D01*
X29930D01*
Y20428D01*
X29929D01*
Y20427D01*
X29927D01*
Y20425D01*
X29925D01*
Y20423D01*
X29923D01*
Y20421D01*
X29921D01*
Y20419D01*
X29920D01*
Y20418D01*
X29918D01*
Y20416D01*
X29916D01*
Y20414D01*
X29914D01*
Y20412D01*
X29912D01*
Y20410D01*
X29911D01*
Y20409D01*
X29909D01*
Y20407D01*
X29907D01*
Y20405D01*
X29905D01*
Y20403D01*
X29904D01*
Y20402D01*
X29902D01*
Y20400D01*
X29900D01*
Y20398D01*
X29898D01*
Y20396D01*
X29896D01*
Y20394D01*
X29895D01*
Y20393D01*
X29893D01*
Y20391D01*
X29891D01*
Y20389D01*
X29889D01*
Y20387D01*
X29887D01*
Y20385D01*
X29886D01*
Y20384D01*
X29877D01*
Y20385D01*
X29873D01*
Y20387D01*
X29871D01*
Y20389D01*
X29868D01*
Y20391D01*
X29866D01*
Y20393D01*
X29862D01*
Y20394D01*
X29861D01*
Y20396D01*
X29859D01*
Y20398D01*
X29855D01*
Y20400D01*
X29853D01*
Y20402D01*
X29850D01*
Y20403D01*
X29848D01*
Y20405D01*
X29845D01*
Y20407D01*
X29843D01*
Y20409D01*
X29839D01*
Y20410D01*
X29837D01*
Y20412D01*
X29834D01*
Y20414D01*
X29832D01*
Y20416D01*
X29830D01*
Y20418D01*
X29827D01*
Y20419D01*
X29825D01*
Y20421D01*
X29821D01*
Y20423D01*
X29820D01*
Y20425D01*
X29816D01*
Y20427D01*
X29814D01*
Y20428D01*
X29811D01*
Y20430D01*
X29809D01*
Y20432D01*
X29805D01*
Y20434D01*
X29803D01*
Y20436D01*
X29800D01*
Y20437D01*
X29798D01*
Y20439D01*
X29795D01*
Y20441D01*
X29793D01*
Y20443D01*
X29791D01*
Y20444D01*
X29787D01*
Y20446D01*
X29786D01*
Y20448D01*
X29782D01*
Y20450D01*
X29780D01*
Y20452D01*
X29777D01*
Y20453D01*
X29773D01*
Y20455D01*
X29764D01*
Y20453D01*
X29761D01*
Y20452D01*
X29757D01*
Y20450D01*
X29753D01*
Y20448D01*
X29752D01*
Y20446D01*
X29748D01*
Y20444D01*
X29744D01*
Y20443D01*
X29741D01*
Y20441D01*
X29737D01*
Y20439D01*
X29734D01*
Y20437D01*
X29730D01*
Y20436D01*
X29727D01*
Y20434D01*
X29723D01*
Y20432D01*
X29719D01*
Y20430D01*
X29714D01*
Y20432D01*
X29712D01*
Y20434D01*
X29711D01*
Y20436D01*
Y20437D01*
Y20439D01*
X29709D01*
Y20441D01*
Y20443D01*
X29707D01*
Y20444D01*
Y20446D01*
Y20448D01*
X29705D01*
Y20450D01*
Y20452D01*
X29703D01*
Y20453D01*
Y20455D01*
X29702D01*
Y20457D01*
Y20459D01*
Y20461D01*
X29700D01*
Y20462D01*
Y20464D01*
X29698D01*
Y20466D01*
Y20468D01*
Y20469D01*
X29696D01*
Y20471D01*
Y20473D01*
X29694D01*
Y20475D01*
Y20477D01*
Y20478D01*
X29693D01*
Y20480D01*
Y20482D01*
X29691D01*
Y20484D01*
Y20486D01*
X29689D01*
Y20487D01*
Y20489D01*
Y20491D01*
X29687D01*
Y20493D01*
Y20494D01*
X29686D01*
Y20496D01*
Y20498D01*
X29684D01*
Y20500D01*
Y20502D01*
Y20503D01*
X29682D01*
Y20505D01*
Y20507D01*
Y20509D01*
X29680D01*
Y20511D01*
Y20512D01*
X29678D01*
Y20514D01*
Y20516D01*
X29677D01*
Y20518D01*
Y20520D01*
Y20521D01*
X29675D01*
Y20523D01*
Y20525D01*
X29673D01*
Y20527D01*
Y20528D01*
Y20530D01*
X29671D01*
Y20532D01*
Y20534D01*
X29669D01*
Y20536D01*
Y20537D01*
X29668D01*
Y20539D01*
Y20541D01*
Y20543D01*
X29666D01*
Y20545D01*
Y20546D01*
X29664D01*
Y20548D01*
Y20550D01*
Y20552D01*
X29662D01*
Y20553D01*
Y20555D01*
X29660D01*
Y20557D01*
Y20559D01*
Y20561D01*
X29659D01*
Y20562D01*
Y20564D01*
X29657D01*
Y20566D01*
Y20568D01*
X29655D01*
Y20570D01*
Y20571D01*
Y20573D01*
X29653D01*
Y20575D01*
Y20577D01*
X29652D01*
Y20578D01*
Y20580D01*
Y20582D01*
X29650D01*
Y20584D01*
Y20586D01*
X29648D01*
Y20587D01*
Y20589D01*
Y20591D01*
X29646D01*
Y20593D01*
Y20595D01*
X29644D01*
Y20596D01*
Y20598D01*
X29643D01*
Y20600D01*
Y20602D01*
Y20603D01*
X29641D01*
Y20605D01*
Y20607D01*
X29639D01*
Y20609D01*
Y20611D01*
Y20612D01*
X29637D01*
Y20614D01*
Y20616D01*
X29635D01*
Y20618D01*
Y20620D01*
X29634D01*
Y20621D01*
Y20623D01*
Y20625D01*
X29632D01*
Y20627D01*
Y20629D01*
X29630D01*
Y20630D01*
Y20632D01*
X29628D01*
Y20634D01*
Y20636D01*
Y20637D01*
X29627D01*
Y20639D01*
Y20641D01*
X29625D01*
Y20643D01*
Y20645D01*
Y20646D01*
X29623D01*
Y20648D01*
Y20650D01*
X29621D01*
Y20652D01*
Y20654D01*
X29619D01*
Y20655D01*
Y20657D01*
Y20659D01*
Y20661D01*
Y20662D01*
Y20664D01*
X29621D01*
Y20666D01*
X29623D01*
Y20668D01*
X29625D01*
Y20670D01*
X29627D01*
Y20671D01*
X29630D01*
Y20673D01*
X29632D01*
Y20675D01*
X29635D01*
Y20677D01*
X29637D01*
Y20679D01*
X29639D01*
Y20680D01*
X29643D01*
Y20682D01*
X29644D01*
Y20684D01*
X29646D01*
Y20686D01*
X29650D01*
Y20687D01*
X29652D01*
Y20689D01*
X29653D01*
Y20691D01*
X29657D01*
Y20693D01*
X29659D01*
Y20695D01*
X29660D01*
Y20696D01*
X29662D01*
Y20698D01*
X29664D01*
Y20700D01*
X29666D01*
Y20702D01*
X29668D01*
Y20704D01*
X29669D01*
Y20705D01*
X29671D01*
Y20707D01*
X29673D01*
Y20709D01*
X29675D01*
Y20711D01*
X29677D01*
Y20713D01*
Y20714D01*
X29678D01*
Y20716D01*
X29680D01*
Y20718D01*
X29682D01*
Y20720D01*
Y20721D01*
X29684D01*
Y20723D01*
X29686D01*
Y20725D01*
Y20727D01*
X29687D01*
Y20729D01*
X29689D01*
Y20730D01*
Y20732D01*
X29691D01*
Y20734D01*
Y20736D01*
X29693D01*
Y20738D01*
Y20739D01*
X29694D01*
Y20741D01*
Y20743D01*
X29696D01*
Y20745D01*
Y20746D01*
X29698D01*
Y20748D01*
Y20750D01*
Y20752D01*
X29700D01*
Y20754D01*
Y20755D01*
Y20757D01*
X29702D01*
Y20759D01*
Y20761D01*
Y20763D01*
X29703D01*
Y20764D01*
Y20766D01*
Y20768D01*
X29705D01*
Y20770D01*
Y20771D01*
Y20773D01*
Y20775D01*
Y20777D01*
Y20779D01*
X29707D01*
Y20780D01*
Y20782D01*
Y20784D01*
Y20786D01*
Y20788D01*
Y20789D01*
Y20791D01*
Y20793D01*
Y20795D01*
Y20796D01*
X29709D01*
Y20798D01*
Y20800D01*
Y20802D01*
Y20804D01*
Y20805D01*
Y20807D01*
Y20809D01*
Y20811D01*
X29707D01*
Y20813D01*
Y20814D01*
Y20816D01*
Y20818D01*
Y20820D01*
Y20822D01*
Y20823D01*
Y20825D01*
Y20827D01*
Y20829D01*
X29705D01*
Y20830D01*
Y20832D01*
Y20834D01*
Y20836D01*
Y20838D01*
X29703D01*
Y20839D01*
Y20841D01*
Y20843D01*
X29702D01*
Y20845D01*
Y20847D01*
Y20848D01*
Y20850D01*
X29700D01*
Y20852D01*
Y20854D01*
X29698D01*
Y20855D01*
Y20857D01*
Y20859D01*
X29696D01*
Y20861D01*
Y20863D01*
X29694D01*
Y20864D01*
Y20866D01*
X29693D01*
Y20868D01*
Y20870D01*
X29691D01*
Y20872D01*
Y20873D01*
X29689D01*
Y20875D01*
X29687D01*
Y20877D01*
Y20879D01*
X29686D01*
Y20880D01*
Y20882D01*
X29684D01*
Y20884D01*
X29682D01*
Y20886D01*
X29680D01*
Y20888D01*
Y20889D01*
X29678D01*
Y20891D01*
X29677D01*
Y20893D01*
X29675D01*
Y20895D01*
X29673D01*
Y20897D01*
Y20898D01*
X29671D01*
Y20900D01*
X29669D01*
Y20902D01*
X29668D01*
Y20904D01*
X29666D01*
Y20906D01*
X29664D01*
Y20907D01*
X29662D01*
Y20909D01*
X29660D01*
Y20911D01*
X29659D01*
Y20913D01*
X29657D01*
Y20914D01*
X29653D01*
Y20916D01*
X29652D01*
Y20918D01*
X29650D01*
Y20920D01*
X29648D01*
Y20922D01*
X29644D01*
Y20923D01*
X29643D01*
Y20925D01*
X29639D01*
Y20927D01*
X29637D01*
Y20929D01*
X29634D01*
Y20931D01*
X29632D01*
Y20932D01*
X29628D01*
Y20934D01*
X29625D01*
Y20936D01*
X29621D01*
Y20938D01*
X29616D01*
Y20939D01*
X29612D01*
Y20941D01*
X29607D01*
Y20943D01*
X29602D01*
Y20945D01*
X29594D01*
Y20947D01*
X29584D01*
Y20948D01*
X29541D01*
Y20947D01*
X29532D01*
Y20945D01*
X29523D01*
Y20943D01*
X29518D01*
Y20941D01*
X29512D01*
Y20939D01*
X29509D01*
Y20938D01*
X29503D01*
Y20936D01*
X29500D01*
Y20934D01*
X29496D01*
Y20932D01*
X29493D01*
Y20931D01*
X29489D01*
Y20929D01*
X29487D01*
Y20927D01*
X29484D01*
Y20925D01*
X29480D01*
Y20923D01*
X29478D01*
Y20922D01*
X29476D01*
Y20920D01*
X29473D01*
Y20918D01*
X29471D01*
Y20916D01*
X29469D01*
Y20914D01*
X29467D01*
Y20913D01*
X29464D01*
Y20911D01*
X29462D01*
Y20909D01*
X29460D01*
Y20907D01*
X29459D01*
Y20906D01*
X29457D01*
Y20904D01*
X29455D01*
Y20902D01*
X29453D01*
Y20900D01*
Y20898D01*
X29450D01*
Y20897D01*
Y20895D01*
X29448D01*
Y20893D01*
X29446D01*
Y20891D01*
X29444D01*
Y20889D01*
Y20888D01*
X29442D01*
Y20886D01*
X29441D01*
Y20884D01*
X29439D01*
Y20882D01*
Y20880D01*
X29437D01*
Y20879D01*
Y20877D01*
X29435D01*
Y20875D01*
X29434D01*
Y20873D01*
Y20872D01*
X29432D01*
Y20870D01*
Y20868D01*
X29430D01*
Y20866D01*
Y20864D01*
X29428D01*
Y20863D01*
Y20861D01*
X29426D01*
Y20859D01*
Y20857D01*
X29425D01*
Y20855D01*
Y20854D01*
Y20852D01*
X29423D01*
Y20850D01*
Y20848D01*
Y20847D01*
X29421D01*
Y20845D01*
Y20843D01*
Y20841D01*
X29419D01*
Y20839D01*
Y20838D01*
Y20836D01*
Y20834D01*
X29417D01*
Y20832D01*
Y20830D01*
Y20829D01*
Y20827D01*
Y20825D01*
Y20823D01*
X29416D01*
Y20822D01*
Y20820D01*
Y20818D01*
Y20816D01*
Y20814D01*
Y20813D01*
Y20811D01*
Y20809D01*
Y20807D01*
Y20805D01*
Y20804D01*
Y20802D01*
Y20800D01*
Y20798D01*
Y20796D01*
Y20795D01*
Y20793D01*
Y20791D01*
Y20789D01*
Y20788D01*
Y20786D01*
Y20784D01*
Y20782D01*
Y20780D01*
X29417D01*
Y20779D01*
Y20777D01*
Y20775D01*
Y20773D01*
Y20771D01*
Y20770D01*
X29419D01*
Y20768D01*
Y20766D01*
Y20764D01*
Y20763D01*
X29421D01*
Y20761D01*
Y20759D01*
Y20757D01*
X29423D01*
Y20755D01*
Y20754D01*
X29425D01*
Y20752D01*
Y20750D01*
Y20748D01*
X29426D01*
Y20746D01*
Y20745D01*
X29428D01*
Y20743D01*
Y20741D01*
X29430D01*
Y20739D01*
Y20738D01*
X29432D01*
Y20736D01*
Y20734D01*
X29434D01*
Y20732D01*
Y20730D01*
X29435D01*
Y20729D01*
X29437D01*
Y20727D01*
Y20725D01*
X29439D01*
Y20723D01*
Y20721D01*
X29441D01*
Y20720D01*
X29442D01*
Y20718D01*
X29444D01*
Y20716D01*
Y20714D01*
X29446D01*
Y20713D01*
X29448D01*
Y20711D01*
X29450D01*
Y20709D01*
Y20707D01*
X29451D01*
Y20705D01*
X29453D01*
Y20704D01*
X29455D01*
Y20702D01*
X29457D01*
Y20700D01*
X29459D01*
Y20698D01*
X29460D01*
Y20696D01*
X29462D01*
Y20695D01*
X29464D01*
Y20693D01*
X29466D01*
Y20691D01*
X29467D01*
Y20689D01*
X29471D01*
Y20687D01*
X29473D01*
Y20686D01*
X29475D01*
Y20684D01*
X29476D01*
Y20682D01*
X29480D01*
Y20680D01*
X29482D01*
Y20679D01*
X29485D01*
Y20677D01*
X29487D01*
Y20675D01*
X29491D01*
Y20673D01*
X29493D01*
Y20671D01*
X29496D01*
Y20670D01*
X29500D01*
Y20668D01*
X29501D01*
Y20666D01*
X29503D01*
Y20664D01*
Y20662D01*
Y20661D01*
X29505D01*
Y20659D01*
X29503D01*
Y20657D01*
Y20655D01*
Y20654D01*
X29501D01*
Y20652D01*
Y20650D01*
X29500D01*
Y20648D01*
Y20646D01*
Y20645D01*
X29498D01*
Y20643D01*
Y20641D01*
X29496D01*
Y20639D01*
Y20637D01*
X29494D01*
Y20636D01*
Y20634D01*
Y20632D01*
X29493D01*
Y20630D01*
Y20629D01*
X29491D01*
Y20627D01*
Y20625D01*
Y20623D01*
X29489D01*
Y20621D01*
Y20620D01*
X29487D01*
Y20618D01*
Y20616D01*
Y20614D01*
X29485D01*
Y20612D01*
Y20611D01*
X29484D01*
Y20609D01*
Y20607D01*
X29482D01*
Y20605D01*
Y20603D01*
Y20602D01*
X29480D01*
Y20600D01*
Y20598D01*
X29478D01*
Y20596D01*
Y20595D01*
Y20593D01*
X29476D01*
Y20591D01*
Y20589D01*
X29475D01*
Y20587D01*
Y20586D01*
Y20584D01*
X29473D01*
Y20582D01*
Y20580D01*
X29471D01*
Y20578D01*
Y20577D01*
X29469D01*
Y20575D01*
Y20573D01*
Y20571D01*
X29467D01*
Y20570D01*
Y20568D01*
X29466D01*
Y20566D01*
Y20564D01*
Y20562D01*
X29464D01*
Y20561D01*
Y20559D01*
X29462D01*
Y20557D01*
Y20555D01*
X29460D01*
Y20553D01*
Y20552D01*
Y20550D01*
X29459D01*
Y20548D01*
Y20546D01*
X29457D01*
Y20545D01*
Y20543D01*
Y20541D01*
X29455D01*
Y20539D01*
Y20537D01*
X29453D01*
Y20536D01*
Y20534D01*
X29451D01*
Y20532D01*
Y20530D01*
Y20528D01*
X29450D01*
Y20527D01*
Y20525D01*
X29448D01*
Y20523D01*
Y20521D01*
Y20520D01*
X29446D01*
Y20518D01*
Y20516D01*
X29444D01*
Y20514D01*
Y20512D01*
Y20511D01*
X29442D01*
Y20509D01*
Y20507D01*
X29441D01*
Y20505D01*
Y20503D01*
X29439D01*
Y20502D01*
Y20500D01*
Y20498D01*
X29437D01*
Y20496D01*
Y20494D01*
X29435D01*
Y20493D01*
Y20491D01*
Y20489D01*
X29434D01*
Y20487D01*
Y20486D01*
X29432D01*
Y20484D01*
Y20482D01*
Y20480D01*
X29430D01*
Y20478D01*
Y20477D01*
X29428D01*
Y20475D01*
Y20473D01*
X29426D01*
Y20471D01*
Y20469D01*
Y20468D01*
X29425D01*
Y20466D01*
Y20464D01*
X29423D01*
Y20462D01*
Y20461D01*
Y20459D01*
X29421D01*
Y20457D01*
Y20455D01*
X29419D01*
Y20453D01*
Y20452D01*
X29417D01*
Y20450D01*
Y20448D01*
Y20446D01*
X29416D01*
Y20444D01*
Y20443D01*
X29414D01*
Y20441D01*
Y20439D01*
X29412D01*
Y20437D01*
Y20436D01*
X29410D01*
Y20434D01*
Y20432D01*
X29407D01*
Y20430D01*
X29401D01*
Y20432D01*
X29398D01*
Y20434D01*
X29394D01*
Y20436D01*
X29392D01*
Y20437D01*
X29389D01*
Y20439D01*
X29385D01*
Y20441D01*
X29382D01*
Y20443D01*
X29380D01*
Y20444D01*
X29376D01*
Y20446D01*
X29373D01*
Y20448D01*
X29369D01*
Y20450D01*
X29366D01*
Y20452D01*
X29362D01*
Y20453D01*
X29357D01*
Y20455D01*
X29351D01*
Y20453D01*
X29346D01*
Y20452D01*
X29342D01*
Y20450D01*
X29341D01*
Y20448D01*
X29337D01*
Y20446D01*
X29335D01*
Y20444D01*
X29333D01*
Y20443D01*
X29330D01*
Y20441D01*
X29328D01*
Y20439D01*
X29325D01*
Y20437D01*
X29323D01*
Y20436D01*
X29319D01*
Y20434D01*
X29317D01*
Y20432D01*
X29314D01*
Y20430D01*
X29312D01*
Y20428D01*
X29308D01*
Y20427D01*
X29307D01*
Y20425D01*
X29303D01*
Y20423D01*
X29301D01*
Y20421D01*
X29300D01*
Y20419D01*
X29296D01*
Y20418D01*
X29294D01*
Y20416D01*
X29291D01*
Y20414D01*
X29289D01*
Y20412D01*
X29285D01*
Y20410D01*
X29283D01*
Y20409D01*
X29280D01*
Y20407D01*
X29278D01*
Y20405D01*
X29276D01*
Y20403D01*
X29273D01*
Y20402D01*
X29271D01*
Y20400D01*
X29267D01*
Y20398D01*
X29266D01*
Y20396D01*
X29262D01*
Y20394D01*
X29260D01*
Y20393D01*
X29257D01*
Y20391D01*
X29255D01*
Y20389D01*
X29251D01*
Y20387D01*
X29249D01*
Y20385D01*
X29248D01*
Y20384D01*
X29244D01*
Y20382D01*
X29241D01*
Y20384D01*
X29237D01*
Y20385D01*
X29235D01*
Y20387D01*
X29233D01*
Y20389D01*
X29232D01*
Y20391D01*
X29230D01*
Y20393D01*
X29228D01*
Y20394D01*
X29226D01*
Y20396D01*
X29224D01*
Y20398D01*
X29223D01*
Y20400D01*
X29221D01*
Y20402D01*
X29219D01*
Y20403D01*
X29217D01*
Y20405D01*
X29216D01*
Y20407D01*
X29214D01*
Y20409D01*
X29212D01*
Y20410D01*
X29210D01*
Y20412D01*
X29208D01*
Y20414D01*
X29207D01*
Y20416D01*
X29205D01*
Y20418D01*
X29203D01*
Y20419D01*
X29201D01*
Y20421D01*
X29199D01*
Y20423D01*
X29198D01*
Y20425D01*
X29196D01*
Y20427D01*
X29194D01*
Y20428D01*
X29192D01*
Y20430D01*
X29190D01*
Y20432D01*
X29189D01*
Y20434D01*
X29187D01*
Y20436D01*
X29185D01*
Y20437D01*
X29183D01*
Y20439D01*
X29182D01*
Y20441D01*
X29180D01*
Y20443D01*
X29178D01*
Y20444D01*
X29176D01*
Y20446D01*
X29174D01*
Y20448D01*
X29173D01*
Y20450D01*
X29171D01*
Y20452D01*
X29169D01*
Y20453D01*
X29167D01*
Y20455D01*
X29165D01*
Y20457D01*
X29164D01*
Y20459D01*
X29162D01*
Y20461D01*
X29160D01*
Y20462D01*
X29158D01*
Y20464D01*
X29157D01*
Y20466D01*
X29155D01*
Y20468D01*
X29153D01*
Y20469D01*
X29151D01*
Y20471D01*
X29149D01*
Y20473D01*
X29148D01*
Y20475D01*
X29146D01*
Y20477D01*
X29144D01*
Y20478D01*
X29142D01*
Y20480D01*
Y20482D01*
X29140D01*
Y20484D01*
Y20486D01*
X29142D01*
Y20487D01*
Y20489D01*
Y20491D01*
X29144D01*
Y20493D01*
X29146D01*
Y20494D01*
Y20496D01*
X29148D01*
Y20498D01*
X29149D01*
Y20500D01*
Y20502D01*
X29151D01*
Y20503D01*
X29153D01*
Y20505D01*
X29155D01*
Y20507D01*
Y20509D01*
X29157D01*
Y20511D01*
X29158D01*
Y20512D01*
Y20514D01*
X29160D01*
Y20516D01*
X29162D01*
Y20518D01*
Y20520D01*
X29164D01*
Y20521D01*
X29165D01*
Y20523D01*
X29167D01*
Y20525D01*
Y20527D01*
X29169D01*
Y20528D01*
X29171D01*
Y20530D01*
Y20532D01*
X29173D01*
Y20534D01*
X29174D01*
Y20536D01*
Y20537D01*
X29176D01*
Y20539D01*
X29178D01*
Y20541D01*
Y20543D01*
X29180D01*
Y20545D01*
X29182D01*
Y20546D01*
Y20548D01*
X29183D01*
Y20550D01*
X29185D01*
Y20552D01*
Y20553D01*
X29187D01*
Y20555D01*
X29189D01*
Y20557D01*
X29190D01*
Y20559D01*
Y20561D01*
X29192D01*
Y20562D01*
X29194D01*
Y20564D01*
Y20566D01*
X29196D01*
Y20568D01*
X29198D01*
Y20570D01*
Y20571D01*
X29199D01*
Y20573D01*
X29201D01*
Y20575D01*
X29203D01*
Y20577D01*
Y20578D01*
X29205D01*
Y20580D01*
X29207D01*
Y20582D01*
Y20584D01*
X29208D01*
Y20586D01*
X29210D01*
Y20587D01*
X29212D01*
Y20589D01*
Y20591D01*
Y20593D01*
X29214D01*
Y20595D01*
Y20596D01*
Y20598D01*
Y20600D01*
Y20602D01*
Y20603D01*
Y20605D01*
X29212D01*
Y20607D01*
Y20609D01*
X29210D01*
Y20611D01*
Y20612D01*
Y20614D01*
X29208D01*
Y20616D01*
Y20618D01*
X29207D01*
Y20620D01*
Y20621D01*
Y20623D01*
X29205D01*
Y20625D01*
Y20627D01*
Y20629D01*
X29203D01*
Y20630D01*
Y20632D01*
X29201D01*
Y20634D01*
Y20636D01*
Y20637D01*
X29199D01*
Y20639D01*
Y20641D01*
X29198D01*
Y20643D01*
Y20645D01*
Y20646D01*
X29196D01*
Y20648D01*
Y20650D01*
X29194D01*
Y20652D01*
Y20654D01*
Y20655D01*
X29192D01*
Y20657D01*
Y20659D01*
X29190D01*
Y20661D01*
Y20662D01*
Y20664D01*
X29189D01*
Y20666D01*
Y20668D01*
X29187D01*
Y20670D01*
Y20671D01*
Y20673D01*
X29185D01*
Y20675D01*
Y20677D01*
X29183D01*
Y20679D01*
Y20680D01*
Y20682D01*
X29182D01*
Y20684D01*
Y20686D01*
X29180D01*
Y20687D01*
Y20689D01*
Y20691D01*
X29178D01*
Y20693D01*
Y20695D01*
Y20696D01*
X29176D01*
Y20698D01*
Y20700D01*
X29174D01*
Y20702D01*
X29173D01*
Y20704D01*
X29171D01*
Y20705D01*
X29167D01*
Y20707D01*
X29162D01*
Y20709D01*
X29151D01*
Y20711D01*
X29142D01*
Y20713D01*
X29132D01*
Y20714D01*
X29123D01*
Y20716D01*
X29112D01*
Y20718D01*
X29103D01*
Y20720D01*
X29094D01*
Y20721D01*
X29083D01*
Y20723D01*
X29073D01*
Y20725D01*
X29064D01*
Y20727D01*
X29053D01*
Y20729D01*
X29042D01*
Y20730D01*
X29039D01*
Y20732D01*
X29037D01*
Y20734D01*
Y20736D01*
Y20738D01*
X29035D01*
Y20739D01*
Y20741D01*
Y20743D01*
Y20745D01*
Y20746D01*
Y20748D01*
Y20750D01*
Y20752D01*
Y20754D01*
Y20755D01*
Y20757D01*
Y20759D01*
Y20761D01*
Y20763D01*
Y20764D01*
Y20766D01*
Y20768D01*
Y20770D01*
Y20771D01*
Y20773D01*
Y20775D01*
Y20777D01*
Y20779D01*
Y20780D01*
Y20782D01*
Y20784D01*
Y20786D01*
Y20788D01*
Y20789D01*
Y20791D01*
Y20793D01*
Y20795D01*
Y20796D01*
Y20798D01*
Y20800D01*
Y20802D01*
Y20804D01*
Y20805D01*
Y20807D01*
Y20809D01*
Y20811D01*
Y20813D01*
Y20814D01*
Y20816D01*
Y20818D01*
Y20820D01*
Y20822D01*
Y20823D01*
Y20825D01*
Y20827D01*
Y20829D01*
Y20830D01*
Y20832D01*
Y20834D01*
Y20836D01*
Y20838D01*
Y20839D01*
Y20841D01*
Y20843D01*
Y20845D01*
Y20847D01*
Y20848D01*
Y20850D01*
Y20852D01*
Y20854D01*
Y20855D01*
Y20857D01*
Y20859D01*
Y20861D01*
Y20863D01*
Y20864D01*
Y20866D01*
X29037D01*
Y20868D01*
Y20870D01*
Y20872D01*
Y20873D01*
X29039D01*
Y20875D01*
X29040D01*
Y20877D01*
X29046D01*
Y20879D01*
X29056D01*
Y20880D01*
X29067D01*
Y20882D01*
X29076D01*
Y20884D01*
X29087D01*
Y20886D01*
X29096D01*
Y20888D01*
X29105D01*
Y20889D01*
X29115D01*
Y20891D01*
X29124D01*
Y20893D01*
X29135D01*
Y20895D01*
X29144D01*
Y20897D01*
X29153D01*
Y20898D01*
X29162D01*
Y20900D01*
X29169D01*
Y20902D01*
X29173D01*
Y20904D01*
X29174D01*
Y20906D01*
X29178D01*
Y20907D01*
Y20909D01*
X29180D01*
Y20911D01*
Y20913D01*
X29182D01*
Y20914D01*
Y20916D01*
X29183D01*
Y20918D01*
Y20920D01*
Y20922D01*
X29185D01*
Y20923D01*
Y20925D01*
X29187D01*
Y20927D01*
Y20929D01*
X29189D01*
Y20931D01*
Y20932D01*
X29190D01*
Y20934D01*
Y20936D01*
Y20938D01*
X29192D01*
Y20939D01*
Y20941D01*
X29194D01*
Y20943D01*
Y20945D01*
X29196D01*
Y20947D01*
Y20948D01*
Y20950D01*
X29198D01*
Y20952D01*
Y20954D01*
X29199D01*
Y20956D01*
Y20957D01*
X29201D01*
Y20959D01*
Y20961D01*
Y20963D01*
X29203D01*
Y20964D01*
Y20966D01*
X29205D01*
Y20968D01*
Y20970D01*
X29207D01*
Y20972D01*
Y20973D01*
X29208D01*
Y20975D01*
Y20977D01*
Y20979D01*
X29210D01*
Y20981D01*
Y20982D01*
X29212D01*
Y20984D01*
Y20986D01*
Y20988D01*
X29214D01*
Y20989D01*
Y20991D01*
Y20993D01*
X29216D01*
Y20995D01*
X29217D01*
Y20997D01*
Y20998D01*
X29219D01*
Y21000D01*
Y21002D01*
Y21004D01*
Y21006D01*
X29217D01*
Y21007D01*
Y21009D01*
X29216D01*
Y21011D01*
Y21013D01*
X29214D01*
Y21015D01*
X29212D01*
Y21016D01*
Y21018D01*
X29210D01*
Y21020D01*
X29208D01*
Y21022D01*
Y21023D01*
X29207D01*
Y21025D01*
X29205D01*
Y21027D01*
Y21029D01*
X29203D01*
Y21031D01*
X29201D01*
Y21032D01*
X29199D01*
Y21034D01*
Y21036D01*
X29198D01*
Y21038D01*
X29196D01*
Y21040D01*
Y21041D01*
X29194D01*
Y21043D01*
X29192D01*
Y21045D01*
Y21047D01*
X29190D01*
Y21048D01*
X29189D01*
Y21050D01*
Y21052D01*
X29187D01*
Y21054D01*
X29185D01*
Y21056D01*
Y21057D01*
X29183D01*
Y21059D01*
X29182D01*
Y21061D01*
Y21063D01*
X29180D01*
Y21065D01*
X29178D01*
Y21066D01*
X29176D01*
Y21068D01*
Y21070D01*
X29174D01*
Y21072D01*
X29173D01*
Y21073D01*
Y21075D01*
X29171D01*
Y21077D01*
X29169D01*
Y21079D01*
Y21081D01*
X29167D01*
Y21082D01*
X29165D01*
Y21084D01*
Y21086D01*
X29164D01*
Y21088D01*
X29162D01*
Y21090D01*
Y21091D01*
X29160D01*
Y21093D01*
X29158D01*
Y21095D01*
Y21097D01*
X29157D01*
Y21099D01*
X29155D01*
Y21100D01*
X29153D01*
Y21102D01*
Y21104D01*
X29151D01*
Y21106D01*
X29149D01*
Y21107D01*
Y21109D01*
X29148D01*
Y21111D01*
X29146D01*
Y21113D01*
Y21115D01*
X29144D01*
Y21116D01*
X29142D01*
Y21118D01*
Y21120D01*
Y21122D01*
Y21124D01*
Y21125D01*
Y21127D01*
X29144D01*
Y21129D01*
X29146D01*
Y21131D01*
X29148D01*
Y21132D01*
X29149D01*
Y21134D01*
X29151D01*
Y21136D01*
X29153D01*
Y21138D01*
X29155D01*
Y21140D01*
X29157D01*
Y21141D01*
X29158D01*
Y21143D01*
X29160D01*
Y21145D01*
X29162D01*
Y21147D01*
X29164D01*
Y21149D01*
X29165D01*
Y21150D01*
X29167D01*
Y21152D01*
X29169D01*
Y21154D01*
X29171D01*
Y21156D01*
X29173D01*
Y21157D01*
X29174D01*
Y21159D01*
X29176D01*
Y21161D01*
X29178D01*
Y21163D01*
X29180D01*
Y21165D01*
X29182D01*
Y21166D01*
X29183D01*
Y21168D01*
X29185D01*
Y21170D01*
X29187D01*
Y21172D01*
X29189D01*
Y21174D01*
X29190D01*
Y21175D01*
X29192D01*
Y21177D01*
X29194D01*
Y21179D01*
X29196D01*
Y21181D01*
X29198D01*
Y21183D01*
X29199D01*
Y21184D01*
X29201D01*
Y21186D01*
X29203D01*
Y21188D01*
X29205D01*
Y21190D01*
X29207D01*
Y21191D01*
X29208D01*
Y21193D01*
X29210D01*
Y21195D01*
X29212D01*
Y21197D01*
X29214D01*
Y21199D01*
X29216D01*
Y21200D01*
X29217D01*
Y21202D01*
X29219D01*
Y21204D01*
X29221D01*
Y21206D01*
X29223D01*
Y21208D01*
X29224D01*
Y21209D01*
X29226D01*
Y21211D01*
X29228D01*
Y21213D01*
X29230D01*
Y21215D01*
X29232D01*
Y21216D01*
X29233D01*
Y21218D01*
X29235D01*
Y21220D01*
X29237D01*
Y21222D01*
X29239D01*
Y21224D01*
X29244D01*
Y21222D01*
X29248D01*
Y21220D01*
X29249D01*
Y21218D01*
X29253D01*
Y21216D01*
X29255D01*
Y21215D01*
X29258D01*
Y21213D01*
X29260D01*
Y21211D01*
X29264D01*
Y21209D01*
X29266D01*
Y21208D01*
X29269D01*
Y21206D01*
X29271D01*
Y21204D01*
X29274D01*
Y21202D01*
X29276D01*
Y21200D01*
X29280D01*
Y21199D01*
X29282D01*
Y21197D01*
X29283D01*
Y21195D01*
X29287D01*
Y21193D01*
X29289D01*
Y21191D01*
X29292D01*
Y21190D01*
X29294D01*
Y21188D01*
X29298D01*
Y21186D01*
X29300D01*
Y21184D01*
X29303D01*
Y21183D01*
X29305D01*
Y21181D01*
X29308D01*
Y21179D01*
X29310D01*
Y21177D01*
X29314D01*
Y21175D01*
X29316D01*
Y21174D01*
X29317D01*
Y21172D01*
X29321D01*
Y21170D01*
X29323D01*
Y21168D01*
X29326D01*
Y21166D01*
X29328D01*
Y21165D01*
X29332D01*
Y21163D01*
X29333D01*
Y21161D01*
X29337D01*
Y21159D01*
X29339D01*
Y21157D01*
X29342D01*
Y21156D01*
X29344D01*
Y21154D01*
X29348D01*
Y21152D01*
X29350D01*
Y21150D01*
X29353D01*
Y21149D01*
X29355D01*
Y21147D01*
X29358D01*
Y21145D01*
X29371D01*
Y21147D01*
X29375D01*
Y21149D01*
X29380D01*
Y21150D01*
X29383D01*
Y21152D01*
X29387D01*
Y21154D01*
X29391D01*
Y21156D01*
X29396D01*
Y21157D01*
X29400D01*
Y21159D01*
X29403D01*
Y21161D01*
X29409D01*
Y21163D01*
X29412D01*
Y21165D01*
X29417D01*
Y21166D01*
X29421D01*
Y21168D01*
X29426D01*
Y21170D01*
X29430D01*
Y21172D01*
X29435D01*
Y21174D01*
X29441D01*
Y21175D01*
X29446D01*
Y21177D01*
X29450D01*
Y21179D01*
X29453D01*
Y21181D01*
X29455D01*
Y21183D01*
X29457D01*
Y21184D01*
X29459D01*
Y21186D01*
X29460D01*
Y21188D01*
Y21190D01*
X29462D01*
Y21191D01*
X29464D01*
Y21193D01*
Y21195D01*
Y21197D01*
X29466D01*
Y21199D01*
Y21200D01*
Y21202D01*
X29467D01*
Y21204D01*
Y21206D01*
Y21208D01*
Y21209D01*
Y21211D01*
Y21213D01*
X29469D01*
Y21215D01*
Y21216D01*
Y21218D01*
Y21220D01*
Y21222D01*
Y21224D01*
X29471D01*
Y21225D01*
Y21227D01*
Y21229D01*
Y21231D01*
Y21233D01*
Y21234D01*
X29473D01*
Y21236D01*
Y21238D01*
Y21240D01*
Y21241D01*
Y21243D01*
X29475D01*
Y21245D01*
Y21247D01*
Y21249D01*
Y21250D01*
Y21252D01*
X29476D01*
Y21254D01*
Y21256D01*
Y21258D01*
Y21259D01*
Y21261D01*
X29478D01*
Y21263D01*
Y21265D01*
Y21267D01*
Y21268D01*
Y21270D01*
Y21272D01*
X29480D01*
Y21274D01*
Y21275D01*
Y21277D01*
Y21279D01*
Y21281D01*
X29482D01*
Y21283D01*
Y21284D01*
Y21286D01*
Y21288D01*
Y21290D01*
X29484D01*
Y21292D01*
Y21293D01*
Y21295D01*
Y21297D01*
Y21299D01*
Y21300D01*
X29485D01*
Y21302D01*
Y21304D01*
Y21306D01*
Y21308D01*
Y21309D01*
Y21311D01*
Y21313D01*
X29487D01*
Y21315D01*
Y21317D01*
Y21318D01*
Y21320D01*
Y21322D01*
X29489D01*
Y21324D01*
Y21325D01*
X29491D01*
Y21327D01*
X29612D01*
Y21329D01*
X29623D01*
Y21327D01*
D02*
G37*
G36*
X33795Y20203D02*
X33803D01*
Y20195D01*
X33810D01*
Y20188D01*
Y20180D01*
X33817D01*
Y20173D01*
X33825D01*
Y20166D01*
X33832D01*
Y20158D01*
X33840D01*
Y20151D01*
X33847D01*
Y20144D01*
X33854D01*
Y20136D01*
X33862D01*
Y20129D01*
Y20121D01*
X33869D01*
Y20114D01*
X33877D01*
Y20107D01*
X33884D01*
Y20099D01*
X33891D01*
Y20092D01*
X33899D01*
Y20084D01*
X33906D01*
Y20077D01*
X33913D01*
Y20070D01*
Y20062D01*
X33921D01*
Y20055D01*
X33928D01*
Y20048D01*
X33936D01*
Y20040D01*
X33943D01*
Y20033D01*
X33950D01*
Y20025D01*
X33958D01*
Y20018D01*
X33663D01*
Y20025D01*
X33655D01*
Y20018D01*
Y20011D01*
X33663D01*
Y20003D01*
Y19996D01*
Y19989D01*
X33670D01*
Y19981D01*
Y19974D01*
Y19966D01*
X33677D01*
Y19959D01*
Y19952D01*
Y19944D01*
Y19937D01*
X33685D01*
Y19930D01*
Y19922D01*
Y19915D01*
X33692D01*
Y19907D01*
Y19900D01*
Y19893D01*
X33699D01*
Y19885D01*
Y19878D01*
Y19870D01*
X33707D01*
Y19863D01*
Y19856D01*
Y19848D01*
X33714D01*
Y19841D01*
Y19834D01*
Y19826D01*
X33722D01*
Y19819D01*
Y19811D01*
Y19804D01*
X33729D01*
Y19797D01*
Y19789D01*
Y19782D01*
X33736D01*
Y19775D01*
Y19767D01*
Y19760D01*
Y19752D01*
X33744D01*
Y19745D01*
Y19738D01*
Y19730D01*
X33751D01*
Y19723D01*
Y19716D01*
X33758D01*
Y19708D01*
X33559D01*
Y19716D01*
Y19723D01*
Y19730D01*
Y19738D01*
X33552D01*
Y19745D01*
Y19752D01*
Y19760D01*
X33544D01*
Y19767D01*
Y19775D01*
Y19782D01*
X33537D01*
Y19789D01*
Y19797D01*
Y19804D01*
X33530D01*
Y19811D01*
Y19819D01*
Y19826D01*
X33522D01*
Y19834D01*
Y19841D01*
Y19848D01*
X33515D01*
Y19856D01*
Y19863D01*
Y19870D01*
Y19878D01*
X33508D01*
Y19885D01*
Y19893D01*
Y19900D01*
X33500D01*
Y19907D01*
Y19915D01*
Y19922D01*
X33493D01*
Y19930D01*
Y19937D01*
Y19944D01*
X33485D01*
Y19952D01*
Y19959D01*
Y19966D01*
X33478D01*
Y19974D01*
Y19981D01*
Y19989D01*
X33471D01*
Y19996D01*
Y20003D01*
Y20011D01*
X33463D01*
Y20018D01*
X33323D01*
Y20025D01*
X33316D01*
Y20033D01*
X33308D01*
Y20040D01*
X33301D01*
Y20048D01*
Y20055D01*
X33294D01*
Y20062D01*
X33286D01*
Y20070D01*
X33279D01*
Y20077D01*
X33271D01*
Y20084D01*
X33264D01*
Y20092D01*
X33257D01*
Y20099D01*
X33249D01*
Y20107D01*
Y20114D01*
X33242D01*
Y20121D01*
X33234D01*
Y20129D01*
X33227D01*
Y20136D01*
X33220D01*
Y20144D01*
X33212D01*
Y20151D01*
X33205D01*
Y20158D01*
X33198D01*
Y20166D01*
Y20173D01*
X33190D01*
Y20180D01*
X33183D01*
Y20188D01*
X33175D01*
Y20195D01*
X33168D01*
Y20203D01*
X33161D01*
Y20210D01*
X33795D01*
Y20203D01*
D02*
G37*
G36*
X31242Y20055D02*
X31257D01*
Y20048D01*
X31272D01*
Y20040D01*
X31279D01*
Y20033D01*
X31286D01*
Y20025D01*
X31294D01*
Y20018D01*
Y20011D01*
X31301D01*
Y20003D01*
Y19996D01*
Y19989D01*
Y19981D01*
Y19974D01*
X31308D01*
Y19966D01*
Y19959D01*
X31227D01*
Y19966D01*
Y19974D01*
Y19981D01*
X31080D01*
Y19974D01*
Y19966D01*
Y19959D01*
Y19952D01*
Y19944D01*
Y19937D01*
Y19930D01*
Y19922D01*
X31131D01*
Y19915D01*
X31264D01*
Y19907D01*
X31279D01*
Y19900D01*
X31286D01*
Y19893D01*
X31294D01*
Y19885D01*
X31301D01*
Y19878D01*
X31308D01*
Y19870D01*
Y19863D01*
Y19856D01*
X31316D01*
Y19848D01*
Y19841D01*
Y19834D01*
Y19826D01*
Y19819D01*
Y19811D01*
Y19804D01*
Y19797D01*
Y19789D01*
Y19782D01*
Y19775D01*
Y19767D01*
Y19760D01*
Y19752D01*
Y19745D01*
Y19738D01*
Y19730D01*
Y19723D01*
Y19716D01*
X31308D01*
Y19708D01*
X31301D01*
Y19701D01*
X31294D01*
Y19693D01*
X31279D01*
Y19686D01*
X31242D01*
Y19693D01*
X31198D01*
Y19701D01*
X31168D01*
Y19708D01*
X31139D01*
Y19716D01*
X31109D01*
Y19723D01*
X31072D01*
Y19716D01*
X31065D01*
Y19708D01*
X31058D01*
Y19701D01*
X31050D01*
Y19693D01*
X30998D01*
Y19701D01*
Y19708D01*
Y19716D01*
Y19723D01*
Y19730D01*
Y19738D01*
Y19745D01*
Y19752D01*
Y19760D01*
Y19767D01*
Y19775D01*
Y19782D01*
Y19789D01*
Y19797D01*
Y19804D01*
Y19811D01*
Y19819D01*
Y19826D01*
Y19834D01*
Y19841D01*
Y19848D01*
Y19856D01*
Y19863D01*
Y19870D01*
Y19878D01*
Y19885D01*
Y19893D01*
Y19900D01*
Y19907D01*
Y19915D01*
Y19922D01*
Y19930D01*
Y19937D01*
Y19944D01*
Y19952D01*
Y19959D01*
Y19966D01*
Y19974D01*
Y19981D01*
Y19989D01*
Y19996D01*
X31006D01*
Y20003D01*
Y20011D01*
Y20018D01*
X31013D01*
Y20025D01*
X31021D01*
Y20033D01*
X31028D01*
Y20040D01*
X31035D01*
Y20048D01*
X31043D01*
Y20055D01*
X31065D01*
Y20062D01*
X31242D01*
Y20055D01*
D02*
G37*
G36*
X32290D02*
X32305D01*
Y20048D01*
X32319D01*
Y20040D01*
X32327D01*
Y20033D01*
X32334D01*
Y20025D01*
X32342D01*
Y20018D01*
Y20011D01*
X32349D01*
Y20003D01*
Y19996D01*
Y19989D01*
Y19981D01*
Y19974D01*
Y19966D01*
Y19959D01*
Y19952D01*
Y19944D01*
Y19937D01*
Y19930D01*
Y19922D01*
Y19915D01*
Y19907D01*
Y19900D01*
Y19893D01*
Y19885D01*
Y19878D01*
Y19870D01*
Y19863D01*
Y19856D01*
Y19848D01*
Y19841D01*
Y19834D01*
Y19826D01*
Y19819D01*
Y19811D01*
Y19804D01*
Y19797D01*
Y19789D01*
Y19782D01*
Y19775D01*
Y19767D01*
Y19760D01*
Y19752D01*
Y19745D01*
Y19738D01*
X32342D01*
Y19730D01*
Y19723D01*
X32334D01*
Y19716D01*
X32327D01*
Y19708D01*
X32319D01*
Y19701D01*
X32305D01*
Y19693D01*
X32290D01*
Y19686D01*
X32098D01*
Y19693D01*
X32076D01*
Y19701D01*
X32061D01*
Y19708D01*
X32054D01*
Y19716D01*
X32046D01*
Y19723D01*
Y19730D01*
X32039D01*
Y19738D01*
Y19745D01*
X32032D01*
Y19752D01*
Y19760D01*
Y19767D01*
Y19775D01*
Y19782D01*
Y19789D01*
Y19797D01*
Y19804D01*
Y19811D01*
X32105D01*
Y19804D01*
Y19797D01*
Y19789D01*
Y19782D01*
Y19775D01*
Y19767D01*
X32275D01*
Y19775D01*
Y19782D01*
Y19789D01*
Y19797D01*
Y19804D01*
Y19811D01*
Y19819D01*
Y19826D01*
Y19834D01*
Y19841D01*
Y19848D01*
X32032D01*
Y19856D01*
Y19863D01*
Y19870D01*
Y19878D01*
Y19885D01*
Y19893D01*
Y19900D01*
Y19907D01*
Y19915D01*
Y19922D01*
Y19930D01*
Y19937D01*
Y19944D01*
Y19952D01*
Y19959D01*
Y19966D01*
Y19974D01*
Y19981D01*
Y19989D01*
Y19996D01*
Y20003D01*
X32039D01*
Y20011D01*
Y20018D01*
X32046D01*
Y20025D01*
Y20033D01*
X32054D01*
Y20040D01*
X32061D01*
Y20048D01*
X32076D01*
Y20055D01*
X32098D01*
Y20062D01*
X32290D01*
Y20055D01*
D02*
G37*
G36*
X33146Y20203D02*
Y20195D01*
Y20188D01*
X33153D01*
Y20180D01*
Y20173D01*
Y20166D01*
X33161D01*
Y20158D01*
Y20151D01*
Y20144D01*
X33168D01*
Y20136D01*
Y20129D01*
Y20121D01*
X33175D01*
Y20114D01*
Y20107D01*
Y20099D01*
X33183D01*
Y20092D01*
Y20084D01*
Y20077D01*
X33190D01*
Y20070D01*
Y20062D01*
Y20055D01*
Y20048D01*
X33198D01*
Y20040D01*
Y20033D01*
Y20025D01*
X33205D01*
Y20018D01*
Y20011D01*
Y20003D01*
X33212D01*
Y19996D01*
Y19989D01*
Y19981D01*
X33220D01*
Y19974D01*
Y19966D01*
Y19959D01*
X33227D01*
Y19952D01*
Y19944D01*
Y19937D01*
X33234D01*
Y19930D01*
Y19922D01*
Y19915D01*
X33242D01*
Y19907D01*
Y19900D01*
X33382D01*
Y19893D01*
X33389D01*
Y19885D01*
X33397D01*
Y19878D01*
X33404D01*
Y19870D01*
X33412D01*
Y19863D01*
X33419D01*
Y19856D01*
X33426D01*
Y19848D01*
X33434D01*
Y19841D01*
Y19834D01*
X33441D01*
Y19826D01*
X33448D01*
Y19819D01*
X33456D01*
Y19811D01*
X33463D01*
Y19804D01*
X33471D01*
Y19797D01*
X33478D01*
Y19789D01*
X33485D01*
Y19782D01*
Y19775D01*
X33493D01*
Y19767D01*
X33500D01*
Y19760D01*
X33508D01*
Y19752D01*
X33515D01*
Y19745D01*
X33522D01*
Y19738D01*
X33530D01*
Y19730D01*
Y19723D01*
X33537D01*
Y19716D01*
X33544D01*
Y19708D01*
X32917D01*
Y19716D01*
X32910D01*
Y19723D01*
X32902D01*
Y19730D01*
X32895D01*
Y19738D01*
X32888D01*
Y19745D01*
X32880D01*
Y19752D01*
Y19760D01*
X32873D01*
Y19767D01*
X32866D01*
Y19775D01*
X32858D01*
Y19782D01*
X32851D01*
Y19789D01*
X32843D01*
Y19797D01*
X32836D01*
Y19804D01*
Y19811D01*
X32829D01*
Y19819D01*
X32821D01*
Y19826D01*
X32814D01*
Y19834D01*
X32806D01*
Y19841D01*
X32799D01*
Y19848D01*
X32792D01*
Y19856D01*
X32784D01*
Y19863D01*
Y19870D01*
X32777D01*
Y19878D01*
X32770D01*
Y19885D01*
X32762D01*
Y19893D01*
X32755D01*
Y19900D01*
X33050D01*
Y19907D01*
Y19915D01*
X33043D01*
Y19922D01*
Y19930D01*
Y19937D01*
X33035D01*
Y19944D01*
Y19952D01*
Y19959D01*
X33028D01*
Y19966D01*
Y19974D01*
Y19981D01*
Y19989D01*
X33020D01*
Y19996D01*
Y20003D01*
Y20011D01*
X33013D01*
Y20018D01*
Y20025D01*
Y20033D01*
X33006D01*
Y20040D01*
Y20048D01*
Y20055D01*
X32998D01*
Y20062D01*
Y20070D01*
Y20077D01*
X32991D01*
Y20084D01*
Y20092D01*
Y20099D01*
X32984D01*
Y20107D01*
Y20114D01*
Y20121D01*
X32976D01*
Y20129D01*
Y20136D01*
Y20144D01*
X32969D01*
Y20151D01*
Y20158D01*
Y20166D01*
Y20173D01*
X32961D01*
Y20180D01*
Y20188D01*
Y20195D01*
X32954D01*
Y20203D01*
Y20210D01*
X33146D01*
Y20203D01*
D02*
G37*
G36*
X32696D02*
Y20195D01*
X32703D01*
Y20188D01*
Y20180D01*
Y20173D01*
X32711D01*
Y20166D01*
Y20158D01*
Y20151D01*
X32718D01*
Y20144D01*
Y20136D01*
X32578D01*
Y20129D01*
Y20121D01*
Y20114D01*
Y20107D01*
Y20099D01*
Y20092D01*
Y20084D01*
Y20077D01*
Y20070D01*
Y20062D01*
Y20055D01*
Y20048D01*
Y20040D01*
Y20033D01*
Y20025D01*
Y20018D01*
Y20011D01*
Y20003D01*
Y19996D01*
Y19989D01*
Y19981D01*
Y19974D01*
Y19966D01*
Y19959D01*
Y19952D01*
Y19944D01*
Y19937D01*
Y19930D01*
Y19922D01*
Y19915D01*
Y19907D01*
Y19900D01*
Y19893D01*
Y19885D01*
Y19878D01*
Y19870D01*
Y19863D01*
Y19856D01*
Y19848D01*
Y19841D01*
Y19834D01*
Y19826D01*
Y19819D01*
Y19811D01*
Y19804D01*
Y19797D01*
Y19789D01*
Y19782D01*
Y19775D01*
Y19767D01*
Y19760D01*
Y19752D01*
Y19745D01*
Y19738D01*
Y19730D01*
Y19723D01*
Y19716D01*
Y19708D01*
Y19701D01*
Y19693D01*
X32497D01*
Y19701D01*
Y19708D01*
Y19716D01*
Y19723D01*
Y19730D01*
Y19738D01*
Y19745D01*
Y19752D01*
Y19760D01*
Y19767D01*
Y19775D01*
Y19782D01*
Y19789D01*
Y19797D01*
Y19804D01*
Y19811D01*
Y19819D01*
Y19826D01*
Y19834D01*
Y19841D01*
Y19848D01*
Y19856D01*
Y19863D01*
Y19870D01*
Y19878D01*
Y19885D01*
Y19893D01*
Y19900D01*
Y19907D01*
Y19915D01*
Y19922D01*
Y19930D01*
Y19937D01*
Y19944D01*
Y19952D01*
Y19959D01*
Y19966D01*
Y19974D01*
Y19981D01*
Y19989D01*
Y19996D01*
Y20003D01*
Y20011D01*
Y20018D01*
Y20025D01*
Y20033D01*
Y20040D01*
Y20048D01*
Y20055D01*
Y20062D01*
Y20070D01*
Y20077D01*
Y20084D01*
Y20092D01*
Y20099D01*
Y20107D01*
Y20114D01*
Y20121D01*
Y20129D01*
Y20136D01*
X32349D01*
Y20144D01*
Y20151D01*
Y20158D01*
X32342D01*
Y20166D01*
Y20173D01*
Y20180D01*
X32334D01*
Y20188D01*
Y20195D01*
Y20203D01*
X32327D01*
Y20210D01*
X32696D01*
Y20203D01*
D02*
G37*
G36*
X31891Y20055D02*
X31906D01*
Y20048D01*
X31921D01*
Y20040D01*
X31928D01*
Y20033D01*
X31936D01*
Y20025D01*
X31943D01*
Y20018D01*
Y20011D01*
X31950D01*
Y20003D01*
Y19996D01*
Y19989D01*
Y19981D01*
Y19974D01*
Y19966D01*
Y19959D01*
Y19952D01*
Y19944D01*
Y19937D01*
Y19930D01*
Y19922D01*
Y19915D01*
X31943D01*
Y19907D01*
Y19900D01*
X31936D01*
Y19893D01*
X31928D01*
Y19885D01*
X31921D01*
Y19878D01*
X31914D01*
Y19870D01*
X31899D01*
Y19863D01*
X31877D01*
Y19856D01*
X31855D01*
Y19848D01*
X31818D01*
Y19841D01*
X31781D01*
Y19834D01*
X31751D01*
Y19826D01*
X31736D01*
Y19819D01*
X31722D01*
Y19811D01*
X31714D01*
Y19804D01*
Y19797D01*
X31707D01*
Y19789D01*
Y19782D01*
Y19775D01*
Y19767D01*
X31877D01*
Y19775D01*
Y19782D01*
Y19789D01*
Y19797D01*
Y19804D01*
Y19811D01*
Y19819D01*
Y19826D01*
X31950D01*
Y19819D01*
Y19811D01*
Y19804D01*
Y19797D01*
Y19789D01*
Y19782D01*
Y19775D01*
Y19767D01*
Y19760D01*
Y19752D01*
Y19745D01*
Y19738D01*
X31943D01*
Y19730D01*
Y19723D01*
X31936D01*
Y19716D01*
X31928D01*
Y19708D01*
X31921D01*
Y19701D01*
X31906D01*
Y19693D01*
X31884D01*
Y19686D01*
X31700D01*
Y19693D01*
X31677D01*
Y19701D01*
X31663D01*
Y19708D01*
X31655D01*
Y19716D01*
X31648D01*
Y19723D01*
Y19730D01*
X31641D01*
Y19738D01*
Y19745D01*
X31633D01*
Y19752D01*
Y19760D01*
Y19767D01*
Y19775D01*
Y19782D01*
Y19789D01*
Y19797D01*
Y19804D01*
Y19811D01*
Y19819D01*
Y19826D01*
X31641D01*
Y19834D01*
Y19841D01*
Y19848D01*
X31648D01*
Y19856D01*
X31655D01*
Y19863D01*
Y19870D01*
X31670D01*
Y19878D01*
X31677D01*
Y19885D01*
X31692D01*
Y19893D01*
X31707D01*
Y19900D01*
X31729D01*
Y19907D01*
X31759D01*
Y19915D01*
X31795D01*
Y19922D01*
X31832D01*
Y19930D01*
X31847D01*
Y19937D01*
X31862D01*
Y19944D01*
X31869D01*
Y19952D01*
X31877D01*
Y19959D01*
Y19966D01*
Y19974D01*
Y19981D01*
X31707D01*
Y19974D01*
Y19966D01*
Y19959D01*
X31633D01*
Y19966D01*
Y19974D01*
Y19981D01*
Y19989D01*
Y19996D01*
Y20003D01*
X31641D01*
Y20011D01*
Y20018D01*
X31648D01*
Y20025D01*
Y20033D01*
X31655D01*
Y20040D01*
X31663D01*
Y20048D01*
X31677D01*
Y20055D01*
X31700D01*
Y20062D01*
X31891D01*
Y20055D01*
D02*
G37*
G36*
X31530Y20180D02*
Y20173D01*
Y20166D01*
Y20158D01*
Y20151D01*
Y20144D01*
Y20136D01*
Y20129D01*
Y20121D01*
Y20114D01*
Y20107D01*
Y20099D01*
Y20092D01*
Y20084D01*
Y20077D01*
Y20070D01*
Y20062D01*
Y20055D01*
Y20048D01*
Y20040D01*
Y20033D01*
Y20025D01*
Y20018D01*
Y20011D01*
Y20003D01*
Y19996D01*
Y19989D01*
Y19981D01*
Y19974D01*
Y19966D01*
Y19959D01*
Y19952D01*
Y19944D01*
Y19937D01*
Y19930D01*
Y19922D01*
Y19915D01*
Y19907D01*
Y19900D01*
Y19893D01*
Y19885D01*
Y19878D01*
Y19870D01*
Y19863D01*
Y19856D01*
Y19848D01*
Y19841D01*
Y19834D01*
Y19826D01*
Y19819D01*
Y19811D01*
Y19804D01*
Y19797D01*
Y19789D01*
Y19782D01*
Y19775D01*
Y19767D01*
Y19760D01*
X31522D01*
Y19752D01*
Y19745D01*
Y19738D01*
X31515D01*
Y19730D01*
Y19723D01*
X31508D01*
Y19716D01*
X31500D01*
Y19708D01*
X31486D01*
Y19701D01*
X31478D01*
Y19693D01*
X31456D01*
Y19686D01*
X31375D01*
Y19693D01*
Y19701D01*
Y19708D01*
Y19716D01*
Y19723D01*
Y19730D01*
Y19738D01*
Y19745D01*
Y19752D01*
Y19760D01*
Y19767D01*
X31449D01*
Y19775D01*
Y19782D01*
Y19789D01*
Y19797D01*
Y19804D01*
Y19811D01*
Y19819D01*
Y19826D01*
Y19834D01*
Y19841D01*
Y19848D01*
Y19856D01*
Y19863D01*
Y19870D01*
Y19878D01*
Y19885D01*
Y19893D01*
Y19900D01*
Y19907D01*
Y19915D01*
Y19922D01*
Y19930D01*
Y19937D01*
Y19944D01*
Y19952D01*
Y19959D01*
Y19966D01*
Y19974D01*
Y19981D01*
Y19989D01*
Y19996D01*
Y20003D01*
Y20011D01*
Y20018D01*
Y20025D01*
Y20033D01*
Y20040D01*
Y20048D01*
Y20055D01*
X31456D01*
Y20062D01*
Y20070D01*
Y20077D01*
Y20084D01*
Y20092D01*
Y20099D01*
Y20107D01*
Y20114D01*
Y20121D01*
Y20129D01*
Y20136D01*
Y20144D01*
Y20151D01*
Y20158D01*
Y20166D01*
Y20173D01*
Y20180D01*
Y20188D01*
X31530D01*
Y20180D01*
D02*
G37*
G36*
X30821Y20136D02*
Y20129D01*
Y20121D01*
Y20114D01*
Y20107D01*
Y20099D01*
Y20092D01*
Y20084D01*
Y20077D01*
Y20070D01*
Y20062D01*
Y20055D01*
Y20048D01*
Y20040D01*
Y20033D01*
Y20025D01*
Y20018D01*
Y20011D01*
Y20003D01*
Y19996D01*
Y19989D01*
Y19981D01*
Y19974D01*
Y19966D01*
Y19959D01*
Y19952D01*
Y19944D01*
Y19937D01*
Y19930D01*
Y19922D01*
Y19915D01*
Y19907D01*
Y19900D01*
Y19893D01*
Y19885D01*
Y19878D01*
Y19870D01*
Y19863D01*
Y19856D01*
Y19848D01*
Y19841D01*
Y19834D01*
Y19826D01*
Y19819D01*
Y19811D01*
Y19804D01*
Y19797D01*
Y19789D01*
Y19782D01*
Y19775D01*
Y19767D01*
Y19760D01*
Y19752D01*
Y19745D01*
Y19738D01*
Y19730D01*
Y19723D01*
Y19716D01*
Y19708D01*
Y19701D01*
Y19693D01*
Y19686D01*
Y19679D01*
X30504D01*
Y19686D01*
Y19693D01*
Y19701D01*
Y19708D01*
Y19716D01*
Y19723D01*
Y19730D01*
Y19738D01*
Y19745D01*
Y19752D01*
Y19760D01*
Y19767D01*
Y19775D01*
X30703D01*
Y19782D01*
Y19789D01*
Y19797D01*
Y19804D01*
Y19811D01*
Y19819D01*
Y19826D01*
Y19834D01*
Y19841D01*
Y19848D01*
Y19856D01*
Y19863D01*
Y19870D01*
Y19878D01*
Y19885D01*
Y19893D01*
Y19900D01*
Y19907D01*
Y19915D01*
Y19922D01*
Y19930D01*
Y19937D01*
Y19944D01*
Y19952D01*
Y19959D01*
Y19966D01*
Y19974D01*
Y19981D01*
Y19989D01*
Y19996D01*
Y20003D01*
Y20011D01*
Y20018D01*
Y20025D01*
Y20033D01*
Y20040D01*
Y20048D01*
Y20055D01*
Y20062D01*
Y20070D01*
Y20077D01*
Y20084D01*
Y20092D01*
Y20099D01*
Y20107D01*
Y20114D01*
Y20121D01*
Y20129D01*
Y20136D01*
Y20144D01*
X30821D01*
Y20136D01*
D02*
G37*
G36*
X30320D02*
Y20129D01*
X30327D01*
Y20121D01*
Y20114D01*
Y20107D01*
X30334D01*
Y20099D01*
Y20092D01*
Y20084D01*
Y20077D01*
X30342D01*
Y20070D01*
Y20062D01*
Y20055D01*
X30349D01*
Y20048D01*
Y20040D01*
Y20033D01*
X30356D01*
Y20025D01*
Y20018D01*
Y20011D01*
Y20003D01*
X30364D01*
Y19996D01*
Y19989D01*
Y19981D01*
X30371D01*
Y19974D01*
Y19966D01*
Y19959D01*
X30379D01*
Y19952D01*
Y19944D01*
Y19937D01*
Y19930D01*
X30386D01*
Y19922D01*
Y19915D01*
Y19907D01*
X30393D01*
Y19900D01*
Y19893D01*
Y19885D01*
X30401D01*
Y19878D01*
Y19870D01*
Y19863D01*
Y19856D01*
X30408D01*
Y19848D01*
Y19841D01*
Y19834D01*
X30416D01*
Y19826D01*
Y19819D01*
Y19811D01*
X30423D01*
Y19804D01*
Y19797D01*
Y19789D01*
Y19782D01*
X30430D01*
Y19775D01*
Y19767D01*
Y19760D01*
X30438D01*
Y19752D01*
Y19745D01*
Y19738D01*
X30445D01*
Y19730D01*
Y19723D01*
Y19716D01*
Y19708D01*
X30452D01*
Y19701D01*
Y19693D01*
Y19686D01*
X30460D01*
Y19679D01*
X30342D01*
Y19686D01*
Y19693D01*
X30334D01*
Y19701D01*
Y19708D01*
Y19716D01*
Y19723D01*
Y19730D01*
X30327D01*
Y19738D01*
Y19745D01*
Y19752D01*
Y19760D01*
X30320D01*
Y19767D01*
Y19775D01*
Y19782D01*
X30179D01*
Y19775D01*
Y19767D01*
Y19760D01*
Y19752D01*
X30172D01*
Y19745D01*
Y19738D01*
Y19730D01*
Y19723D01*
X30165D01*
Y19716D01*
Y19708D01*
Y19701D01*
Y19693D01*
Y19686D01*
X30157D01*
Y19679D01*
X30039D01*
Y19686D01*
Y19693D01*
X30047D01*
Y19701D01*
Y19708D01*
Y19716D01*
Y19723D01*
X30054D01*
Y19730D01*
Y19738D01*
Y19745D01*
X30061D01*
Y19752D01*
Y19760D01*
Y19767D01*
X30069D01*
Y19775D01*
Y19782D01*
Y19789D01*
X30076D01*
Y19797D01*
Y19804D01*
Y19811D01*
Y19819D01*
X30083D01*
Y19826D01*
Y19834D01*
Y19841D01*
X30091D01*
Y19848D01*
Y19856D01*
Y19863D01*
X30098D01*
Y19870D01*
Y19878D01*
Y19885D01*
Y19893D01*
X30106D01*
Y19900D01*
Y19907D01*
Y19915D01*
X30113D01*
Y19922D01*
Y19930D01*
Y19937D01*
X30120D01*
Y19944D01*
Y19952D01*
Y19959D01*
Y19966D01*
X30128D01*
Y19974D01*
Y19981D01*
Y19989D01*
X30135D01*
Y19996D01*
Y20003D01*
Y20011D01*
X30142D01*
Y20018D01*
Y20025D01*
Y20033D01*
Y20040D01*
X30150D01*
Y20048D01*
Y20055D01*
Y20062D01*
X30157D01*
Y20070D01*
Y20077D01*
Y20084D01*
X30165D01*
Y20092D01*
Y20099D01*
Y20107D01*
Y20114D01*
X30172D01*
Y20121D01*
Y20129D01*
Y20136D01*
X30179D01*
Y20144D01*
X30320D01*
Y20136D01*
D02*
G37*
G36*
X29980D02*
Y20129D01*
Y20121D01*
Y20114D01*
Y20107D01*
Y20099D01*
Y20092D01*
Y20084D01*
Y20077D01*
Y20070D01*
Y20062D01*
Y20055D01*
Y20048D01*
Y20040D01*
Y20033D01*
Y20025D01*
Y20018D01*
Y20011D01*
Y20003D01*
Y19996D01*
Y19989D01*
Y19981D01*
Y19974D01*
Y19966D01*
Y19959D01*
Y19952D01*
Y19944D01*
Y19937D01*
Y19930D01*
Y19922D01*
Y19915D01*
Y19907D01*
Y19900D01*
Y19893D01*
Y19885D01*
Y19878D01*
Y19870D01*
Y19863D01*
Y19856D01*
Y19848D01*
Y19841D01*
Y19834D01*
Y19826D01*
Y19819D01*
Y19811D01*
Y19804D01*
Y19797D01*
Y19789D01*
Y19782D01*
Y19775D01*
Y19767D01*
Y19760D01*
Y19752D01*
Y19745D01*
Y19738D01*
Y19730D01*
Y19723D01*
Y19716D01*
Y19708D01*
Y19701D01*
Y19693D01*
Y19686D01*
Y19679D01*
X29803D01*
Y19686D01*
X29744D01*
Y19693D01*
X29714D01*
Y19701D01*
X29700D01*
Y19708D01*
X29685D01*
Y19716D01*
X29678D01*
Y19723D01*
X29663D01*
Y19730D01*
Y19738D01*
X29655D01*
Y19745D01*
X29648D01*
Y19752D01*
X29641D01*
Y19760D01*
Y19767D01*
Y19775D01*
X29633D01*
Y19782D01*
Y19789D01*
Y19797D01*
Y19804D01*
Y19811D01*
X29619D01*
Y19819D01*
X29633D01*
Y19826D01*
Y19834D01*
Y19841D01*
Y19848D01*
Y19856D01*
X29641D01*
Y19863D01*
Y19870D01*
X29648D01*
Y19878D01*
Y19885D01*
X29655D01*
Y19893D01*
X29663D01*
Y19900D01*
X29678D01*
Y19907D01*
X29692D01*
Y19915D01*
X29714D01*
Y19922D01*
X29729D01*
Y19930D01*
Y19937D01*
X29707D01*
Y19944D01*
X29692D01*
Y19952D01*
X29685D01*
Y19959D01*
X29678D01*
Y19966D01*
X29670D01*
Y19974D01*
X29663D01*
Y19981D01*
Y19989D01*
X29655D01*
Y19996D01*
Y20003D01*
Y20011D01*
Y20018D01*
X29648D01*
Y20025D01*
Y20033D01*
Y20040D01*
Y20048D01*
X29655D01*
Y20055D01*
Y20062D01*
Y20070D01*
Y20077D01*
X29663D01*
Y20084D01*
Y20092D01*
X29670D01*
Y20099D01*
X29678D01*
Y20107D01*
X29685D01*
Y20114D01*
X29700D01*
Y20121D01*
X29714D01*
Y20129D01*
X29737D01*
Y20136D01*
X29796D01*
Y20144D01*
X29980D01*
Y20136D01*
D02*
G37*
G36*
X31890Y19432D02*
X31914D01*
Y19423D01*
X31922D01*
Y19415D01*
Y19407D01*
X31931D01*
Y19399D01*
Y19391D01*
Y19383D01*
X31922D01*
Y19375D01*
Y19367D01*
X31914D01*
Y19358D01*
X31906D01*
Y19350D01*
X31866D01*
Y19358D01*
X31857D01*
Y19367D01*
X31849D01*
Y19375D01*
Y19383D01*
X31841D01*
Y19391D01*
Y19399D01*
Y19407D01*
X31849D01*
Y19415D01*
Y19423D01*
X31857D01*
Y19432D01*
X31882D01*
Y19440D01*
X31890D01*
Y19432D01*
D02*
G37*
G36*
X31776D02*
X31792D01*
Y19423D01*
X31801D01*
Y19415D01*
X31809D01*
Y19407D01*
Y19399D01*
Y19391D01*
Y19383D01*
Y19375D01*
Y19367D01*
X31801D01*
Y19358D01*
X31784D01*
Y19350D01*
X31752D01*
Y19358D01*
X31736D01*
Y19367D01*
Y19375D01*
X31727D01*
Y19383D01*
Y19391D01*
Y19399D01*
Y19407D01*
Y19415D01*
X31736D01*
Y19423D01*
X31744D01*
Y19432D01*
X31768D01*
Y19440D01*
X31776D01*
Y19432D01*
D02*
G37*
G36*
X31662D02*
X31679D01*
Y19423D01*
X31687D01*
Y19415D01*
X31695D01*
Y19407D01*
Y19399D01*
Y19391D01*
Y19383D01*
Y19375D01*
Y19367D01*
X31687D01*
Y19358D01*
X31671D01*
Y19350D01*
X31638D01*
Y19358D01*
X31622D01*
Y19367D01*
Y19375D01*
X31614D01*
Y19383D01*
Y19391D01*
Y19399D01*
Y19407D01*
Y19415D01*
X31622D01*
Y19423D01*
X31630D01*
Y19432D01*
X31646D01*
Y19440D01*
X31662D01*
Y19432D01*
D02*
G37*
G36*
X29704D02*
Y19423D01*
Y19415D01*
X29712D01*
Y19407D01*
Y19399D01*
X29721D01*
Y19391D01*
Y19383D01*
Y19375D01*
X29729D01*
Y19367D01*
Y19358D01*
X29737D01*
Y19350D01*
Y19342D01*
Y19334D01*
X29745D01*
Y19326D01*
Y19318D01*
X29753D01*
Y19310D01*
Y19302D01*
Y19293D01*
X29761D01*
Y19285D01*
Y19277D01*
X29769D01*
Y19269D01*
Y19261D01*
Y19253D01*
X29777D01*
Y19245D01*
Y19237D01*
X29786D01*
Y19228D01*
Y19220D01*
Y19212D01*
X29794D01*
Y19204D01*
Y19196D01*
X29802D01*
Y19188D01*
Y19180D01*
Y19172D01*
X29810D01*
Y19163D01*
Y19155D01*
X29818D01*
Y19147D01*
Y19139D01*
Y19131D01*
X29826D01*
Y19123D01*
Y19115D01*
X29834D01*
Y19107D01*
Y19098D01*
Y19090D01*
X29842D01*
Y19082D01*
Y19074D01*
X29851D01*
Y19066D01*
Y19058D01*
Y19050D01*
X29859D01*
Y19042D01*
Y19033D01*
X29867D01*
Y19025D01*
Y19017D01*
Y19009D01*
X29875D01*
Y19001D01*
Y18993D01*
X29883D01*
Y18985D01*
Y18977D01*
Y18968D01*
X29891D01*
Y18960D01*
Y18952D01*
X29899D01*
Y18944D01*
X29786D01*
Y18952D01*
Y18960D01*
Y18968D01*
X29777D01*
Y18977D01*
Y18985D01*
Y18993D01*
X29769D01*
Y19001D01*
Y19009D01*
X29761D01*
Y19017D01*
Y19025D01*
Y19033D01*
X29753D01*
Y19042D01*
Y19050D01*
X29745D01*
Y19058D01*
Y19066D01*
Y19074D01*
X29737D01*
Y19082D01*
Y19090D01*
Y19098D01*
X29729D01*
Y19107D01*
Y19115D01*
X29721D01*
Y19123D01*
Y19131D01*
Y19139D01*
X29712D01*
Y19147D01*
Y19155D01*
X29704D01*
Y19163D01*
Y19172D01*
Y19180D01*
X29696D01*
Y19188D01*
Y19196D01*
X29688D01*
Y19204D01*
Y19212D01*
Y19220D01*
X29680D01*
Y19228D01*
Y19237D01*
Y19245D01*
X29672D01*
Y19253D01*
Y19261D01*
X29664D01*
Y19269D01*
Y19277D01*
Y19285D01*
X29656D01*
Y19293D01*
X29647D01*
Y19285D01*
Y19277D01*
X29639D01*
Y19269D01*
Y19261D01*
X29631D01*
Y19253D01*
Y19245D01*
Y19237D01*
X29623D01*
Y19228D01*
Y19220D01*
X29615D01*
Y19212D01*
Y19204D01*
Y19196D01*
X29607D01*
Y19188D01*
Y19180D01*
X29599D01*
Y19172D01*
Y19163D01*
Y19155D01*
X29591D01*
Y19147D01*
Y19139D01*
X29582D01*
Y19131D01*
Y19123D01*
Y19115D01*
X29574D01*
Y19107D01*
Y19098D01*
Y19090D01*
X29566D01*
Y19082D01*
Y19074D01*
X29558D01*
Y19066D01*
Y19058D01*
Y19050D01*
X29550D01*
Y19042D01*
Y19033D01*
X29647D01*
Y19025D01*
Y19017D01*
Y19009D01*
Y19001D01*
Y18993D01*
Y18985D01*
Y18977D01*
Y18968D01*
Y18960D01*
Y18952D01*
Y18944D01*
X29412D01*
Y18952D01*
Y18960D01*
Y18968D01*
X29420D01*
Y18977D01*
Y18985D01*
X29428D01*
Y18993D01*
Y19001D01*
Y19009D01*
X29436D01*
Y19017D01*
Y19025D01*
X29444D01*
Y19033D01*
Y19042D01*
Y19050D01*
X29452D01*
Y19058D01*
Y19066D01*
X29461D01*
Y19074D01*
Y19082D01*
Y19090D01*
X29469D01*
Y19098D01*
Y19107D01*
X29477D01*
Y19115D01*
Y19123D01*
Y19131D01*
X29485D01*
Y19139D01*
Y19147D01*
X29493D01*
Y19155D01*
Y19163D01*
Y19172D01*
X29501D01*
Y19180D01*
Y19188D01*
X29509D01*
Y19196D01*
Y19204D01*
Y19212D01*
X29517D01*
Y19220D01*
Y19228D01*
X29526D01*
Y19237D01*
Y19245D01*
X29534D01*
Y19253D01*
Y19261D01*
Y19269D01*
X29542D01*
Y19277D01*
Y19285D01*
X29550D01*
Y19293D01*
Y19302D01*
Y19310D01*
X29558D01*
Y19318D01*
Y19326D01*
X29566D01*
Y19334D01*
Y19342D01*
Y19350D01*
X29574D01*
Y19358D01*
Y19367D01*
X29582D01*
Y19375D01*
Y19383D01*
Y19391D01*
X29591D01*
Y19399D01*
Y19407D01*
X29599D01*
Y19415D01*
Y19423D01*
Y19432D01*
X29607D01*
Y19440D01*
X29704D01*
Y19432D01*
D02*
G37*
G36*
X34141D02*
Y19423D01*
Y19415D01*
Y19407D01*
Y19399D01*
Y19391D01*
Y19383D01*
Y19375D01*
Y19367D01*
Y19358D01*
Y19350D01*
X33938D01*
Y19342D01*
Y19334D01*
Y19326D01*
Y19318D01*
Y19310D01*
Y19302D01*
Y19293D01*
Y19285D01*
Y19277D01*
Y19269D01*
Y19261D01*
Y19253D01*
Y19245D01*
Y19237D01*
Y19228D01*
Y19220D01*
Y19212D01*
Y19204D01*
Y19196D01*
Y19188D01*
Y19180D01*
Y19172D01*
Y19163D01*
Y19155D01*
Y19147D01*
Y19139D01*
Y19131D01*
Y19123D01*
Y19115D01*
Y19107D01*
Y19098D01*
Y19090D01*
Y19082D01*
Y19074D01*
Y19066D01*
Y19058D01*
Y19050D01*
Y19042D01*
Y19033D01*
Y19025D01*
Y19017D01*
Y19009D01*
Y19001D01*
Y18993D01*
Y18985D01*
Y18977D01*
Y18968D01*
Y18960D01*
Y18952D01*
Y18944D01*
Y18936D01*
X33848D01*
Y18944D01*
Y18952D01*
Y18960D01*
Y18968D01*
Y18977D01*
Y18985D01*
Y18993D01*
Y19001D01*
Y19009D01*
Y19017D01*
Y19025D01*
Y19033D01*
Y19042D01*
Y19050D01*
Y19058D01*
Y19066D01*
Y19074D01*
Y19082D01*
Y19090D01*
Y19098D01*
Y19107D01*
Y19115D01*
Y19123D01*
Y19131D01*
Y19139D01*
Y19147D01*
Y19155D01*
Y19163D01*
Y19172D01*
Y19180D01*
Y19188D01*
Y19196D01*
Y19204D01*
Y19212D01*
Y19220D01*
Y19228D01*
Y19237D01*
Y19245D01*
Y19253D01*
Y19261D01*
Y19269D01*
Y19277D01*
Y19285D01*
Y19293D01*
Y19302D01*
Y19310D01*
Y19318D01*
Y19326D01*
Y19334D01*
Y19342D01*
Y19350D01*
X33645D01*
Y19358D01*
Y19367D01*
Y19375D01*
Y19383D01*
Y19391D01*
Y19399D01*
Y19407D01*
Y19415D01*
Y19423D01*
Y19432D01*
Y19440D01*
X34141D01*
Y19432D01*
D02*
G37*
G36*
X33296D02*
Y19423D01*
Y19415D01*
Y19407D01*
Y19399D01*
Y19391D01*
Y19383D01*
Y19375D01*
Y19367D01*
Y19358D01*
Y19350D01*
Y19342D01*
Y19334D01*
Y19326D01*
Y19318D01*
Y19310D01*
Y19302D01*
Y19293D01*
Y19285D01*
Y19277D01*
Y19269D01*
Y19261D01*
Y19253D01*
Y19245D01*
Y19237D01*
Y19228D01*
Y19220D01*
Y19212D01*
Y19204D01*
Y19196D01*
Y19188D01*
Y19180D01*
Y19172D01*
Y19163D01*
Y19155D01*
Y19147D01*
Y19139D01*
Y19131D01*
Y19123D01*
Y19115D01*
Y19107D01*
Y19098D01*
Y19090D01*
Y19082D01*
Y19074D01*
Y19066D01*
Y19058D01*
Y19050D01*
Y19042D01*
Y19033D01*
Y19025D01*
Y19017D01*
Y19009D01*
Y19001D01*
Y18993D01*
Y18985D01*
Y18977D01*
Y18968D01*
Y18960D01*
Y18952D01*
Y18944D01*
Y18936D01*
X32800D01*
Y18944D01*
Y18952D01*
Y18960D01*
Y18968D01*
Y18977D01*
Y18985D01*
Y18993D01*
Y19001D01*
Y19009D01*
Y19017D01*
Y19025D01*
Y19033D01*
X33198D01*
Y19042D01*
Y19050D01*
Y19058D01*
Y19066D01*
Y19074D01*
Y19082D01*
Y19090D01*
Y19098D01*
Y19107D01*
Y19115D01*
Y19123D01*
Y19131D01*
Y19139D01*
Y19147D01*
X32898D01*
Y19155D01*
Y19163D01*
Y19172D01*
Y19180D01*
Y19188D01*
Y19196D01*
Y19204D01*
Y19212D01*
Y19220D01*
Y19228D01*
Y19237D01*
X33198D01*
Y19245D01*
Y19253D01*
Y19261D01*
Y19269D01*
Y19277D01*
Y19285D01*
Y19293D01*
Y19302D01*
Y19310D01*
Y19318D01*
Y19326D01*
Y19334D01*
Y19342D01*
Y19350D01*
X32800D01*
Y19358D01*
Y19367D01*
Y19375D01*
Y19383D01*
Y19391D01*
Y19399D01*
Y19407D01*
Y19415D01*
Y19423D01*
Y19432D01*
Y19440D01*
X33296D01*
Y19432D01*
D02*
G37*
G36*
X32443D02*
Y19423D01*
Y19415D01*
Y19407D01*
Y19399D01*
Y19391D01*
Y19383D01*
Y19375D01*
Y19367D01*
Y19358D01*
Y19350D01*
X32248D01*
Y19342D01*
Y19334D01*
Y19326D01*
Y19318D01*
Y19310D01*
Y19302D01*
Y19293D01*
Y19285D01*
Y19277D01*
Y19269D01*
Y19261D01*
Y19253D01*
Y19245D01*
Y19237D01*
Y19228D01*
Y19220D01*
Y19212D01*
Y19204D01*
Y19196D01*
Y19188D01*
Y19180D01*
Y19172D01*
Y19163D01*
Y19155D01*
Y19147D01*
Y19139D01*
Y19131D01*
Y19123D01*
Y19115D01*
Y19107D01*
Y19098D01*
Y19090D01*
Y19082D01*
Y19074D01*
Y19066D01*
Y19058D01*
Y19050D01*
Y19042D01*
Y19033D01*
Y19025D01*
Y19017D01*
Y19009D01*
Y19001D01*
Y18993D01*
Y18985D01*
Y18977D01*
Y18968D01*
Y18960D01*
Y18952D01*
Y18944D01*
Y18936D01*
X32150D01*
Y18944D01*
Y18952D01*
Y18960D01*
Y18968D01*
Y18977D01*
Y18985D01*
Y18993D01*
Y19001D01*
Y19009D01*
Y19017D01*
Y19025D01*
Y19033D01*
Y19042D01*
Y19050D01*
Y19058D01*
Y19066D01*
Y19074D01*
Y19082D01*
Y19090D01*
Y19098D01*
Y19107D01*
Y19115D01*
Y19123D01*
Y19131D01*
Y19139D01*
Y19147D01*
Y19155D01*
Y19163D01*
Y19172D01*
Y19180D01*
Y19188D01*
Y19196D01*
Y19204D01*
Y19212D01*
Y19220D01*
Y19228D01*
Y19237D01*
Y19245D01*
Y19253D01*
Y19261D01*
Y19269D01*
Y19277D01*
Y19285D01*
Y19293D01*
Y19302D01*
Y19310D01*
Y19318D01*
Y19326D01*
Y19334D01*
Y19342D01*
Y19350D01*
X31955D01*
Y19358D01*
Y19367D01*
Y19375D01*
Y19383D01*
Y19391D01*
Y19399D01*
Y19407D01*
Y19415D01*
Y19423D01*
Y19432D01*
Y19440D01*
X32443D01*
Y19432D01*
D02*
G37*
G36*
X31597D02*
X31589D01*
Y19423D01*
Y19415D01*
Y19407D01*
Y19399D01*
Y19391D01*
Y19383D01*
Y19375D01*
Y19367D01*
Y19358D01*
Y19350D01*
X31394D01*
Y19342D01*
Y19334D01*
Y19326D01*
Y19318D01*
Y19310D01*
Y19302D01*
Y19293D01*
Y19285D01*
Y19277D01*
Y19269D01*
Y19261D01*
Y19253D01*
Y19245D01*
Y19237D01*
Y19228D01*
Y19220D01*
Y19212D01*
Y19204D01*
Y19196D01*
Y19188D01*
Y19180D01*
Y19172D01*
Y19163D01*
Y19155D01*
Y19147D01*
Y19139D01*
Y19131D01*
Y19123D01*
Y19115D01*
Y19107D01*
Y19098D01*
Y19090D01*
Y19082D01*
Y19074D01*
Y19066D01*
Y19058D01*
Y19050D01*
Y19042D01*
Y19033D01*
Y19025D01*
Y19017D01*
Y19009D01*
Y19001D01*
Y18993D01*
Y18985D01*
Y18977D01*
Y18968D01*
Y18960D01*
Y18952D01*
Y18944D01*
Y18936D01*
X31305D01*
Y18944D01*
Y18952D01*
Y18960D01*
Y18968D01*
Y18977D01*
Y18985D01*
Y18993D01*
Y19001D01*
Y19009D01*
Y19017D01*
Y19025D01*
Y19033D01*
Y19042D01*
Y19050D01*
Y19058D01*
Y19066D01*
Y19074D01*
Y19082D01*
Y19090D01*
Y19098D01*
Y19107D01*
Y19115D01*
Y19123D01*
Y19131D01*
Y19139D01*
Y19147D01*
Y19155D01*
Y19163D01*
Y19172D01*
Y19180D01*
Y19188D01*
Y19196D01*
Y19204D01*
Y19212D01*
Y19220D01*
Y19228D01*
Y19237D01*
Y19245D01*
Y19253D01*
Y19261D01*
Y19269D01*
Y19277D01*
Y19285D01*
Y19293D01*
Y19302D01*
Y19310D01*
Y19318D01*
Y19326D01*
Y19334D01*
Y19342D01*
X31297D01*
Y19350D01*
X31102D01*
Y19358D01*
Y19367D01*
Y19375D01*
Y19383D01*
Y19391D01*
Y19399D01*
Y19407D01*
Y19415D01*
Y19423D01*
Y19432D01*
Y19440D01*
X31597D01*
Y19432D01*
D02*
G37*
G36*
X30752D02*
X30744D01*
Y19423D01*
Y19415D01*
Y19407D01*
Y19399D01*
Y19391D01*
Y19383D01*
Y19375D01*
Y19367D01*
Y19358D01*
Y19350D01*
Y19342D01*
Y19334D01*
Y19326D01*
Y19318D01*
Y19310D01*
Y19302D01*
Y19293D01*
Y19285D01*
Y19277D01*
Y19269D01*
Y19261D01*
Y19253D01*
Y19245D01*
Y19237D01*
Y19228D01*
Y19220D01*
Y19212D01*
Y19204D01*
Y19196D01*
Y19188D01*
Y19180D01*
Y19172D01*
Y19163D01*
Y19155D01*
X30752D01*
Y19147D01*
X30346D01*
Y19139D01*
Y19131D01*
Y19123D01*
Y19115D01*
Y19107D01*
Y19098D01*
Y19090D01*
Y19082D01*
Y19074D01*
Y19066D01*
Y19058D01*
Y19050D01*
Y19042D01*
Y19033D01*
X30752D01*
Y19025D01*
X30744D01*
Y19017D01*
Y19009D01*
Y19001D01*
Y18993D01*
Y18985D01*
Y18977D01*
Y18968D01*
Y18960D01*
Y18952D01*
Y18944D01*
Y18936D01*
X30257D01*
Y18944D01*
Y18952D01*
Y18960D01*
Y18968D01*
Y18977D01*
Y18985D01*
Y18993D01*
Y19001D01*
Y19009D01*
Y19017D01*
Y19025D01*
Y19033D01*
Y19042D01*
Y19050D01*
Y19058D01*
Y19066D01*
Y19074D01*
Y19082D01*
Y19090D01*
Y19098D01*
Y19107D01*
Y19115D01*
Y19123D01*
Y19131D01*
Y19139D01*
Y19147D01*
Y19155D01*
Y19163D01*
Y19172D01*
Y19180D01*
Y19188D01*
Y19196D01*
Y19204D01*
Y19212D01*
Y19220D01*
Y19228D01*
Y19237D01*
X30655D01*
Y19245D01*
Y19253D01*
Y19261D01*
Y19269D01*
Y19277D01*
Y19285D01*
Y19293D01*
Y19302D01*
Y19310D01*
Y19318D01*
Y19326D01*
Y19334D01*
Y19342D01*
Y19350D01*
X30257D01*
Y19358D01*
Y19367D01*
Y19375D01*
Y19383D01*
Y19391D01*
Y19399D01*
Y19407D01*
Y19415D01*
Y19423D01*
Y19432D01*
X30249D01*
Y19440D01*
X30752D01*
Y19432D01*
D02*
G37*
%LPC*%
G36*
X31094Y19863D02*
X31080D01*
Y19856D01*
Y19848D01*
Y19841D01*
Y19834D01*
Y19826D01*
Y19819D01*
Y19811D01*
Y19804D01*
Y19797D01*
X31102D01*
Y19789D01*
X31139D01*
Y19782D01*
X31176D01*
Y19775D01*
X31205D01*
Y19767D01*
X31242D01*
Y19775D01*
Y19782D01*
Y19789D01*
Y19797D01*
Y19804D01*
Y19811D01*
Y19819D01*
Y19826D01*
Y19834D01*
X31235D01*
Y19841D01*
X31227D01*
Y19848D01*
X31168D01*
Y19856D01*
X31094D01*
Y19863D01*
D02*
G37*
G36*
X32275Y19981D02*
X32105D01*
Y19974D01*
Y19966D01*
Y19959D01*
Y19952D01*
Y19944D01*
Y19937D01*
Y19930D01*
Y19922D01*
Y19915D01*
Y19907D01*
X32275D01*
Y19915D01*
Y19922D01*
Y19930D01*
Y19937D01*
Y19944D01*
Y19952D01*
Y19959D01*
Y19966D01*
Y19974D01*
Y19981D01*
D02*
G37*
G36*
X30261Y20055D02*
X30246D01*
Y20048D01*
Y20040D01*
X30238D01*
Y20033D01*
Y20025D01*
Y20018D01*
Y20011D01*
Y20003D01*
X30231D01*
Y19996D01*
Y19989D01*
Y19981D01*
Y19974D01*
X30224D01*
Y19966D01*
Y19959D01*
Y19952D01*
Y19944D01*
X30216D01*
Y19937D01*
Y19930D01*
Y19922D01*
Y19915D01*
Y19907D01*
X30209D01*
Y19900D01*
Y19893D01*
Y19885D01*
X30201D01*
Y19878D01*
Y19870D01*
X30297D01*
Y19878D01*
Y19885D01*
X30290D01*
Y19893D01*
Y19900D01*
Y19907D01*
Y19915D01*
Y19922D01*
X30283D01*
Y19930D01*
Y19937D01*
Y19944D01*
Y19952D01*
X30275D01*
Y19959D01*
Y19966D01*
Y19974D01*
Y19981D01*
Y19989D01*
X30268D01*
Y19996D01*
Y20003D01*
Y20011D01*
Y20018D01*
X30261D01*
Y20025D01*
Y20033D01*
Y20040D01*
Y20048D01*
Y20055D01*
D02*
G37*
G36*
X29869D02*
X29796D01*
Y20048D01*
X29773D01*
Y20040D01*
X29766D01*
Y20033D01*
Y20025D01*
Y20018D01*
X29759D01*
Y20011D01*
Y20003D01*
X29766D01*
Y19996D01*
Y19989D01*
Y19981D01*
X29773D01*
Y19974D01*
X29781D01*
Y19966D01*
X29788D01*
Y19959D01*
X29869D01*
Y19966D01*
Y19974D01*
Y19981D01*
Y19989D01*
Y19996D01*
Y20003D01*
Y20011D01*
Y20018D01*
Y20025D01*
Y20033D01*
Y20040D01*
Y20048D01*
Y20055D01*
D02*
G37*
G36*
Y19878D02*
X29773D01*
Y19870D01*
X29759D01*
Y19863D01*
X29751D01*
Y19856D01*
X29744D01*
Y19848D01*
Y19841D01*
Y19834D01*
Y19826D01*
Y19819D01*
Y19811D01*
Y19804D01*
Y19797D01*
X29751D01*
Y19789D01*
X29759D01*
Y19782D01*
X29766D01*
Y19775D01*
X29788D01*
Y19767D01*
X29869D01*
Y19775D01*
Y19782D01*
Y19789D01*
Y19797D01*
Y19804D01*
Y19811D01*
Y19819D01*
Y19826D01*
Y19834D01*
Y19841D01*
Y19848D01*
Y19856D01*
Y19863D01*
Y19870D01*
Y19878D01*
D02*
G37*
%LPD*%
D11*
X33275Y16800D02*
Y17800D01*
X30125D02*
X33275D01*
X30125Y16800D02*
Y17800D01*
Y16800D02*
X33275D01*
X33859Y21520D02*
Y22580D01*
X29741Y21520D02*
X33859D01*
X29741D02*
Y22580D01*
X33859D01*
D40*
X30253Y21320D02*
X30200Y21267D01*
Y21160D01*
X30253Y21107D01*
X30307D01*
X30360Y21160D01*
Y21213D01*
Y21160D01*
X30413Y21107D01*
X30467D01*
X30520Y21160D01*
Y21267D01*
X30467Y21320D01*
X30200Y21000D02*
X30413D01*
X30520Y20893D01*
X30413Y20787D01*
X30200D01*
X30253Y20680D02*
X30200Y20627D01*
Y20520D01*
X30253Y20467D01*
X30307D01*
X30360Y20520D01*
Y20574D01*
Y20520D01*
X30413Y20467D01*
X30467D01*
X30520Y20520D01*
Y20627D01*
X30467Y20680D01*
X31220Y18180D02*
Y18393D01*
X31113Y18500D01*
X31007Y18393D01*
Y18180D01*
Y18340D01*
X31220D01*
X30900Y18500D02*
Y18180D01*
X30687D01*
X30367Y18500D02*
X30580D01*
Y18180D01*
X30367D01*
X30580Y18340D02*
X30474D01*
X30260Y18180D02*
Y18500D01*
X30100D01*
X30047Y18447D01*
Y18340D01*
X30100Y18287D01*
X30260D01*
X30154D02*
X30047Y18180D01*
X29940Y18500D02*
X29727D01*
X29834D01*
Y18180D01*
X31253Y21107D02*
X31200Y21160D01*
Y21267D01*
X31253Y21320D01*
X31467D01*
X31520Y21267D01*
Y21160D01*
X31467Y21107D01*
X31360D01*
Y21213D01*
X31520Y21000D02*
X31200D01*
X31520Y20787D01*
X31200D01*
Y20680D02*
X31520D01*
Y20520D01*
X31467Y20467D01*
X31253D01*
X31200Y20520D01*
Y20680D01*
X33253Y21107D02*
X33200Y21160D01*
Y21267D01*
X33253Y21320D01*
X33307D01*
X33360Y21267D01*
Y21160D01*
X33413Y21107D01*
X33467D01*
X33520Y21160D01*
Y21267D01*
X33467Y21320D01*
X33200Y21000D02*
X33520D01*
Y20840D01*
X33467Y20787D01*
X33253D01*
X33200Y20840D01*
Y21000D01*
X33520Y20680D02*
X33307D01*
X33200Y20574D01*
X33307Y20467D01*
X33520D01*
X33360D01*
Y20680D01*
X32620Y18180D02*
Y18393D01*
X32513Y18500D01*
X32407Y18393D01*
Y18180D01*
Y18340D01*
X32620D01*
X32300Y18500D02*
Y18180D01*
X32140D01*
X32087Y18233D01*
Y18447D01*
X32140Y18500D01*
X32300D01*
X31980D02*
Y18180D01*
X31820D01*
X31767Y18233D01*
Y18447D01*
X31820Y18500D01*
X31980D01*
X31660Y18180D02*
Y18500D01*
X31500D01*
X31447Y18447D01*
Y18340D01*
X31500Y18287D01*
X31660D01*
X31554D02*
X31447Y18180D01*
X33670D02*
Y18500D01*
X33510D01*
X33457Y18447D01*
Y18340D01*
X33510Y18287D01*
X33670D01*
X33563D02*
X33457Y18180D01*
X33137Y18447D02*
X33190Y18500D01*
X33297D01*
X33350Y18447D01*
Y18393D01*
X33297Y18340D01*
X33190D01*
X33137Y18287D01*
Y18233D01*
X33190Y18180D01*
X33297D01*
X33350Y18233D01*
X33030Y18500D02*
X32817D01*
X32924D01*
Y18180D01*
X32253Y21107D02*
X32200Y21160D01*
Y21267D01*
X32253Y21320D01*
X32307D01*
X32360Y21267D01*
Y21160D01*
X32413Y21107D01*
X32467D01*
X32520Y21160D01*
Y21267D01*
X32467Y21320D01*
X32253Y20787D02*
X32200Y20840D01*
Y20947D01*
X32253Y21000D01*
X32467D01*
X32520Y20947D01*
Y20840D01*
X32467Y20787D01*
X32200Y20680D02*
X32520D01*
Y20467D01*
M02*
