G04*
G04 #@! TF.GenerationSoftware,Altium Limited,Altium Designer,21.2.0 (30)*
G04*
G04 Layer_Color=128*
%FSLAX24Y24*%
%MOIN*%
G70*
G04*
G04 #@! TF.SameCoordinates,F2F7C35C-2EFF-4099-9E54-F5DBC4FB75ED*
G04*
G04*
G04 #@! TF.FilePolarity,Positive*
G04*
G01*
G75*
%ADD42C,0.0020*%
D42*
X32499Y17300D02*
X32901D01*
X32700Y17099D02*
Y17501D01*
X31499Y17300D02*
X31901D01*
X31700Y17099D02*
Y17501D01*
X30499Y17300D02*
X30901D01*
X30700Y17099D02*
Y17501D01*
X33083Y22050D02*
X33517D01*
X33300Y21833D02*
Y22267D01*
X32083Y22050D02*
X32517D01*
X32300Y21833D02*
Y22267D01*
X30083Y22050D02*
X30517D01*
X30300Y21833D02*
Y22267D01*
X31083Y22050D02*
X31517D01*
X31300Y21833D02*
Y22267D01*
X33910Y19775D02*
X34190D01*
X34050Y19635D02*
Y19915D01*
X33160Y21000D02*
X33440D01*
X33300Y20860D02*
Y21140D01*
X29235Y19850D02*
X29515D01*
X29375Y19710D02*
Y19990D01*
X30310Y20800D02*
X30590D01*
X30450Y20660D02*
Y20940D01*
X31810Y20700D02*
X32090D01*
X31950Y20560D02*
Y20840D01*
X31160Y19150D02*
X31440D01*
X31300Y19010D02*
Y19290D01*
M02*
