G04*
G04 #@! TF.GenerationSoftware,Altium Limited,Altium Designer,21.2.0 (30)*
G04*
G04 Layer_Physical_Order=2*
G04 Layer_Color=16711680*
%FSLAX24Y24*%
%MOIN*%
G70*
G04*
G04 #@! TF.SameCoordinates,F2F7C35C-2EFF-4099-9E54-F5DBC4FB75ED*
G04*
G04*
G04 #@! TF.FilePolarity,Positive*
G04*
G01*
G75*
%ADD30C,0.0090*%
%ADD32C,0.0130*%
%ADD34C,0.0150*%
%ADD35C,0.0610*%
%ADD36R,0.0610X0.0610*%
%ADD37C,0.0630*%
%ADD38R,0.0630X0.0630*%
%ADD39C,0.0500*%
G36*
X34466Y22710D02*
X34523Y22673D01*
X34560Y22616D01*
X34573Y22552D01*
X34573Y22550D01*
Y17655D01*
X34523Y17637D01*
X34484Y17684D01*
X34391Y17760D01*
X34285Y17817D01*
X34170Y17852D01*
X34050Y17864D01*
X33930Y17852D01*
X33815Y17817D01*
X33709Y17760D01*
X33616Y17684D01*
X33540Y17591D01*
X33483Y17485D01*
X33448Y17370D01*
X33436Y17250D01*
X33448Y17130D01*
X33483Y17015D01*
X33540Y16909D01*
X33616Y16816D01*
X33709Y16740D01*
X33732Y16727D01*
X33719Y16677D01*
X29805D01*
X29787Y16727D01*
X29834Y16766D01*
X29910Y16859D01*
X29967Y16965D01*
X30002Y17080D01*
X30014Y17200D01*
X30002Y17320D01*
X29967Y17435D01*
X29910Y17541D01*
X29834Y17634D01*
X29741Y17710D01*
X29635Y17767D01*
X29520Y17802D01*
X29400Y17814D01*
X29280Y17802D01*
X29165Y17767D01*
X29059Y17710D01*
X28977Y17644D01*
X28927Y17660D01*
Y22600D01*
X28928D01*
X28937Y22647D01*
X28963Y22687D01*
X29003Y22713D01*
X29050Y22722D01*
Y22723D01*
X34400D01*
X34402Y22723D01*
X34466Y22710D01*
D02*
G37*
%LPC*%
G36*
X31355Y22465D02*
X31350D01*
Y22100D01*
X31715D01*
Y22105D01*
X31687Y22210D01*
X31632Y22305D01*
X31555Y22382D01*
X31460Y22437D01*
X31355Y22465D01*
D02*
G37*
G36*
X31250D02*
X31245D01*
X31140Y22437D01*
X31045Y22382D01*
X30968Y22305D01*
X30913Y22210D01*
X30885Y22105D01*
Y22100D01*
X31250D01*
Y22465D01*
D02*
G37*
G36*
X33355D02*
X33245D01*
X33140Y22437D01*
X33045Y22382D01*
X32968Y22305D01*
X32913Y22210D01*
X32885Y22105D01*
Y21995D01*
X32913Y21890D01*
X32968Y21795D01*
X33045Y21718D01*
X33140Y21663D01*
X33245Y21635D01*
X33355D01*
X33460Y21663D01*
X33555Y21718D01*
X33632Y21795D01*
X33687Y21890D01*
X33715Y21995D01*
Y22105D01*
X33687Y22210D01*
X33632Y22305D01*
X33555Y22382D01*
X33460Y22437D01*
X33355Y22465D01*
D02*
G37*
G36*
X31715Y22000D02*
X31350D01*
Y21635D01*
X31355D01*
X31460Y21663D01*
X31555Y21718D01*
X31632Y21795D01*
X31687Y21890D01*
X31715Y21995D01*
Y22000D01*
D02*
G37*
G36*
X31250D02*
X30885D01*
Y21995D01*
X30913Y21890D01*
X30968Y21795D01*
X31045Y21718D01*
X31140Y21663D01*
X31245Y21635D01*
X31250D01*
Y22000D01*
D02*
G37*
G36*
X33350Y21349D02*
Y21050D01*
X33649D01*
X33626Y21135D01*
X33580Y21215D01*
X33515Y21280D01*
X33435Y21326D01*
X33350Y21349D01*
D02*
G37*
G36*
X33250D02*
X33165Y21326D01*
X33085Y21280D01*
X33020Y21215D01*
X32974Y21135D01*
X32951Y21050D01*
X33250D01*
Y21349D01*
D02*
G37*
G36*
X32355Y22465D02*
X32245D01*
X32140Y22437D01*
X32045Y22382D01*
X31968Y22305D01*
X31913Y22210D01*
X31885Y22105D01*
Y21995D01*
X31913Y21890D01*
X31968Y21795D01*
X32045Y21718D01*
X32140Y21663D01*
X32245Y21635D01*
X32252D01*
Y20964D01*
X32202Y20943D01*
X32165Y20980D01*
X32085Y21026D01*
X32000Y21049D01*
Y20700D01*
Y20351D01*
X32085Y20374D01*
X32165Y20420D01*
X32202Y20457D01*
X32252Y20436D01*
Y19298D01*
X31619D01*
X31580Y19365D01*
X31515Y19430D01*
X31435Y19476D01*
X31346Y19500D01*
X31254D01*
X31165Y19476D01*
X31085Y19430D01*
X31020Y19365D01*
X30974Y19285D01*
X30950Y19196D01*
Y19104D01*
X30974Y19015D01*
X31020Y18935D01*
X31085Y18870D01*
X31165Y18824D01*
X31254Y18800D01*
X31346D01*
X31435Y18824D01*
X31515Y18870D01*
X31580Y18935D01*
X31619Y19002D01*
X32347D01*
X32404Y19013D01*
X32452Y19045D01*
X32505Y19098D01*
X32537Y19146D01*
X32548Y19203D01*
Y21714D01*
X32555Y21718D01*
X32632Y21795D01*
X32687Y21890D01*
X32715Y21995D01*
Y22105D01*
X32687Y22210D01*
X32632Y22305D01*
X32555Y22382D01*
X32460Y22437D01*
X32355Y22465D01*
D02*
G37*
G36*
X31900Y21049D02*
X31815Y21026D01*
X31735Y20980D01*
X31670Y20915D01*
X31624Y20835D01*
X31601Y20750D01*
X31900D01*
Y21049D01*
D02*
G37*
G36*
X33649Y20950D02*
X33350D01*
Y20651D01*
X33435Y20674D01*
X33515Y20720D01*
X33580Y20785D01*
X33626Y20865D01*
X33649Y20950D01*
D02*
G37*
G36*
X33250D02*
X32951D01*
X32974Y20865D01*
X33020Y20785D01*
X33085Y20720D01*
X33165Y20674D01*
X33250Y20651D01*
Y20950D01*
D02*
G37*
G36*
X30715Y22465D02*
X29885D01*
Y21635D01*
X30132D01*
Y21050D01*
X30145Y20986D01*
X30149Y20979D01*
X30124Y20935D01*
X30100Y20846D01*
Y20754D01*
X30124Y20665D01*
X30170Y20585D01*
X30235Y20520D01*
X30315Y20474D01*
X30404Y20450D01*
X30496D01*
X30585Y20474D01*
X30665Y20520D01*
X30730Y20585D01*
X30776Y20665D01*
X30800Y20754D01*
Y20846D01*
X30776Y20935D01*
X30730Y21015D01*
X30665Y21080D01*
X30585Y21126D01*
X30496Y21150D01*
X30468D01*
Y21635D01*
X30715D01*
Y22465D01*
D02*
G37*
G36*
X31900Y20650D02*
X31601D01*
X31624Y20565D01*
X31670Y20485D01*
X31735Y20420D01*
X31815Y20374D01*
X31900Y20351D01*
Y20650D01*
D02*
G37*
G36*
X34096Y20125D02*
X34004D01*
X33915Y20101D01*
X33835Y20055D01*
X33770Y19990D01*
X33724Y19910D01*
X33700Y19821D01*
Y19729D01*
X33716Y19669D01*
X32574Y18526D01*
X32535Y18468D01*
X32522Y18400D01*
Y17665D01*
X32451Y17624D01*
X32376Y17549D01*
X32322Y17456D01*
X32295Y17353D01*
Y17247D01*
X32322Y17144D01*
X32376Y17051D01*
X32451Y16976D01*
X32544Y16922D01*
X32647Y16895D01*
X32753D01*
X32856Y16922D01*
X32949Y16976D01*
X33024Y17051D01*
X33078Y17144D01*
X33105Y17247D01*
Y17353D01*
X33078Y17456D01*
X33024Y17549D01*
X32949Y17624D01*
X32878Y17665D01*
Y18326D01*
X33983Y19431D01*
X34004Y19425D01*
X34096D01*
X34185Y19449D01*
X34265Y19495D01*
X34330Y19560D01*
X34376Y19640D01*
X34400Y19729D01*
Y19821D01*
X34376Y19910D01*
X34330Y19990D01*
X34265Y20055D01*
X34185Y20101D01*
X34096Y20125D01*
D02*
G37*
G36*
X29421Y20200D02*
X29329D01*
X29240Y20176D01*
X29160Y20130D01*
X29095Y20065D01*
X29049Y19985D01*
X29025Y19896D01*
Y19804D01*
X29049Y19715D01*
X29095Y19635D01*
X29160Y19570D01*
X29240Y19524D01*
X29314Y19504D01*
X29317Y19490D01*
X29349Y19442D01*
X31040Y17751D01*
X31020Y17705D01*
X30295D01*
Y16895D01*
X31105D01*
Y17620D01*
X31151Y17640D01*
X31327Y17464D01*
X31322Y17456D01*
X31295Y17353D01*
Y17247D01*
X31322Y17144D01*
X31376Y17051D01*
X31451Y16976D01*
X31544Y16922D01*
X31647Y16895D01*
X31753D01*
X31856Y16922D01*
X31949Y16976D01*
X32024Y17051D01*
X32078Y17144D01*
X32105Y17247D01*
Y17353D01*
X32078Y17456D01*
X32024Y17549D01*
X31949Y17624D01*
X31856Y17678D01*
X31753Y17705D01*
X31647D01*
X31544Y17678D01*
X31536Y17673D01*
X29615Y19595D01*
X29655Y19635D01*
X29701Y19715D01*
X29725Y19804D01*
Y19896D01*
X29701Y19985D01*
X29655Y20065D01*
X29590Y20130D01*
X29510Y20176D01*
X29421Y20200D01*
D02*
G37*
%LPD*%
D30*
X29375Y19850D02*
X29453Y19772D01*
Y19547D02*
Y19772D01*
Y19547D02*
X31700Y17300D01*
X32400Y19203D02*
Y21950D01*
X31300Y19150D02*
X32347D01*
X32300Y22050D02*
X32400Y21950D01*
X32347Y19150D02*
X32400Y19203D01*
D32*
X30300Y21050D02*
Y22050D01*
Y21050D02*
X30450Y20900D01*
Y20800D02*
Y20900D01*
D34*
X32700Y18400D02*
X34050Y19750D01*
Y19775D01*
X32700Y17300D02*
Y18400D01*
D35*
Y17300D02*
D03*
X31700D02*
D03*
D36*
X30700D02*
D03*
D37*
X33300Y22050D02*
D03*
X32300D02*
D03*
X31300D02*
D03*
D38*
X30300D02*
D03*
D39*
X34050Y19775D02*
D03*
X33300Y21000D02*
D03*
X29375Y19850D02*
D03*
X30450Y20800D02*
D03*
X31950Y20700D02*
D03*
X31300Y19150D02*
D03*
M02*
